<?xml version="1.0" encoding="UTF-8"?>
<svg id="Layer_2" data-name="Layer 2" xmlns="http://www.w3.org/2000/svg" viewBox="0 0 27.62 24.15">
  <defs>
    <style>
      .cls-1 {
        fill: #000;
        stroke-width: 0px;
      }
    </style>
  </defs>
  <g id="Guides">
    <g>
      <path class="cls-1" d="M4.51,11.73s-.03,0-.05,0c0-.01-.02-.02-.03-.03.21-.24.41-.49.62-.73.09-.1.19-.2.29-.3.04-.04.07-.09.09-.15-.08.02-.16.05-.25.08.01-.03.01-.04.02-.05.15-.15.31-.29.46-.44.02-.02.03-.04.05-.06.04-.05.06-.12.11-.14.09-.04.09-.09.1-.17.01-.16.04-.32.07-.47.04-.19.1-.37.15-.56,0-.02,0-.05,0-.07-.01,0-.02,0-.03-.01-.16.37-.32.75-.49,1.14-.02-.04-.03-.07-.05-.1-.01.02-.02.02-.02.03-.06.13-.11.27-.17.4-.04.08-.06.07-.16,0-.12.25-.17.3-.3.26-.05.06-.06.17-.19.14-.02,0-.06.05-.09.08-.07.1-.07.1-.17.03-.03.03-.07.07-.11.11-.03-.04-.06-.07-.09-.11-.05.03-.11.09-.13.07-.16-.08-.28.1-.44.05-.05-.02-.12.03-.17.06-.17.07-.34.13-.55.08.16-.16.31-.31.46-.46-.06-.04-.09-.06-.12-.09.08-.13.16-.26.24-.39,0-.01-.04-.05-.03-.07.07-.12.14-.23.22-.35-.03-.02-.05-.04-.08-.07.08-.07.16-.15.23-.22h-.03c.01-.06.02-.11.04-.16.05-.09.09-.18.16-.26.06-.06.14-.1.21-.16,0-.02-.02-.06,0-.08.09-.12.16-.25.28-.34.25-.18.52-.34.78-.5.04-.02.08-.04.15-.08-.1-.03-.16-.05-.26-.08.1-.08.17-.16.26-.22.09-.06.08-.12.03-.2-.05.08-.09.15-.15.21-.05.05-.12.07-.17.1-.03.02-.05.04-.07.06-.05.05-.09.09-.15.16,0-.05-.01-.08-.01-.08-.12.07-.24.14-.38.21-.02-.07-.02-.11-.03-.14-.14,0-.26.16-.44.05-.07,0-.17.14-.28.01,0,0-.02,0-.04,0-.25.05-.49.1-.74.15-.06.01-.13.02-.19.03,0-.01-.01-.03-.02-.04.06-.05.12-.11.18-.16.17-.13.23-.33.35-.48.13-.17.14-.4.34-.53.06-.04.07-.15.12-.2.06-.07.14-.11.22-.17.02-.01.05-.02.05-.03.02-.14.14-.11.22-.14.02,0,.04-.01.06-.02-.05-.13.03-.19.31-.23l-.02-.03s.07-.07.11-.08c.18-.04.35-.07.54-.1-.05-.1.03-.12.11-.13.22-.04.43-.11.66-.04.06.02.12,0,.2-.02l-.23-.11s0-.02,0-.03c.21-.01.42-.02.63-.04,0,0,0-.02,0-.03-.05-.04-.09-.07-.14-.11v-.03c.13.03.25.05.37.09.07.02.11.01.14-.05.05-.09.1-.18.15-.27-.11.02-.21.03-.32.05,0-.07-.01-.13-.02-.21-.17.21-.37.28-.63.27.02-.05.03-.09.04-.13-.07.02-.14.04-.2.04-.1,0-.21.07-.3-.05-.02-.03-.12,0-.18,0-.05,0-.1,0-.2-.01.04-.05.06-.07.07-.09-.11-.03-.22,0-.24-.16,0-.04-.13-.06-.2-.09-.06-.02-.13-.03-.19-.05,0,0,.02-.02.02-.03-.03-.05-.06-.1-.1-.14-.17-.16-.36-.31-.53-.47-.08-.08-.15-.17-.22-.26,0,0,.01-.02.02-.03.14.06.28.13.42.18.06.02.13.02.19.03.27.01.53.02.8.03,0-.02-.02-.06-.05-.12.09,0,.16,0,.24,0,0-.01,0-.04,0-.04.14-.03.26-.06.38-.08.03,0,.07-.01.1-.01.22,0,.45.01.67.02,0,0,0-.02-.02-.05.16,0,.32.02.48.03.03,0,.06-.03.1-.04.04,0,.09-.02.12,0,.19.12.37.08.54-.05.1-.08.18-.17.27-.26.4-.4.8-.8,1.2-1.2.02-.02.04-.04.07-.05.1.14.08.32-.05.43-.31.25-.58.53-.77.88-.13.25-.22.53-.3.8-.06.22.03.43.16.61.11.16.22.31.34.48-.03.02-.05.03-.07.04,0,.09.17.17.02.27.06.08.14.17.18.27.09.21.17.44.22.66.02.07-.05.17-.06.25-.02.16-.03.33-.05.49-.01.11.03.22-.06.32-.04.04,0,.14-.02.21-.02.05-.05.1-.05.15.03.19.07.37.1.56,0,.04-.01.08-.02.12-.03-.02-.08-.04-.1-.07-.03-.03-.04-.08-.06-.12-.03-.05-.05-.13-.15-.11,0,0-.02,0-.03-.02-.11-.1-.23-.2-.35-.3-.11.08-.13-.04-.17-.1-.07-.13-.18-.13-.31-.15,0-.05,0-.12,0-.2-.04.04-.07.06-.12.11,0-.12-.01-.21-.02-.3-.03,0-.1.02-.13-.01-.03-.03-.05-.1-.05-.15,0-.19,0-.38,0-.58-.08.04-.15.08-.24.14l.18.25c-.09.03-.08.08-.04.16.05.09.1.19.13.29.01.04,0,.09-.02.16.1.14.21.3.32.45.09.12.2.24.26.37.08.18.17.38.18.58,0,.16.08.28.14.41.04.07.06.13-.01.19-.02.01-.03.05-.02.07.07.21-.03.44.08.65.02.04-.01.1-.02.15-.02,0-.03,0-.05,0l.18.25s-.07.05-.11.07l.33.46c-.22.05-.5-.07-.62-.25-.04-.06-.2-.06-.29,0-.03-.04-.06-.08-.1-.11-.05-.05-.08-.12-.18-.13-.06,0-.11-.12-.18-.15-.06-.03-.13-.05-.17-.1-.09-.11-.17-.24-.26-.36-.03.04-.05.07-.08.12-.03-.05-.06-.1-.08-.14-.04-.07-.05-.16-.17-.17-.04,0-.08-.1-.1-.16-.02-.08-.03-.17-.04-.27-.03.01-.06.03-.11.06-.07-.13-.13-.27-.2-.41-.07.39-.09.77.07,1.13.09.21.24.36.45.43.09.03.2.03.27.08.14.1.29.14.46.16.04,0,.07.05.1.1.24.11.48.22.73.33-.03.04-.04.06-.05.07,0,0,.01.01.02.02.12.03.25.04.34.16.05.06.16.07.25.1-.02.05-.03.09-.04.09.15.15.28.3.42.44l-.03.02s.03.09.06.13c.07.09.15.18.23.27.09.1.2.17.34.18.18,0,.36.04.55.07,0,.04,0,.08-.01.13.14-.06.27-.12.39-.18.13-.06.26-.11.39-.17.03.08.11.04.2.05.24,0,.45-.11.68-.12.05,0,.1.03.17.06l.23-.16s.05.03.07.05c.06.06.11.05.16-.02.06-.09.11-.17.17-.26.1.13.07.29.04.42-.04.19-.15.34-.2.52-.04.15-.16.19-.24.31.06-.03.1-.05.14-.07.01.01.02.02.03.03-.07.08-.14.15-.22.23.03.02.08.04.14.07-.1.08-.18.15-.26.21.04.02.07.05.15.1-.14.05-.25.1-.37.14.05.03.09.07.17.12-.12.04-.21.07-.3.1-.04.01-.09.03-.1.06-.04.13-.13.15-.24.14-.04,0-.08,0-.16,0,.1.06.16.1.19.13.2-.11.39-.22.61-.34,0,.09-.02.15-.02.23.59-.17,1.12-.42,1.58-.8,0,0,.02.02.03.03,0,.05,0,.1,0,.15.2-.08.39-.18.59-.23.23-.06.46-.08.7-.12.11-.02.16.01.11.14.12,0,.22,0,.22.16.2-.05.39-.09.59-.13.06-.01.13-.03.2-.02.05,0,.1.06.15.09,0,.01,0,.02-.01.03.22-.05.45-.1.67-.14.03,0,.07.03.14.06.03-.01.09-.04.12-.06.08.02.13.05.17.04.17-.04.34-.08.51-.13.07-.02.15-.03.22-.03-.15.21-.32.38-.55.47-.09.04-.16.07-.13.19,0,.03-.04.08-.08.1-.14.08-.24.18-.31.32-.03.06-.09.09-.15.15l.08.11c-.14.09-.28.17-.43.26.01.02.03.04.05.08-.1.05-.2.1-.3.16.02.03.04.06.07.11-.12.04-.23.07-.3.1-.05.05-.08.09-.12.1-.16.05-.33.09-.5.14.02.04.05.08.08.13-.08,0-.14,0-.2,0-.12.02-.23.05-.35.08-.09.02-.18.04-.27.06,0,0,0,0,0,.01.12.17.12.18-.09.22-.1.02-.22-.03-.29.08,0,0-.05,0-.07,0-.22-.08-.44-.16-.66-.24-.11-.04-.21-.09-.35-.15.02.06.03.1.05.16-.07-.02-.12-.04-.16-.06-.32-.16-.65-.33-.97-.49-.09-.04-.19-.07-.29-.09-.07-.02-.15-.01-.18-.11,0-.02-.05-.03-.07-.03-.21-.02-.43-.03-.65-.02.13.03.25.06.38.09.15.04.16.08.05.19.1.04.2.09.3.13-.02.02-.04.04-.06.06.05.01.09.03.13.04.18.03.29.18.4.29.07.07.15.12.21.19.03.03.12.04.07.12,0,0,.04.04.06.05.07.05.14.09.22.14l-.08.05s0,.02,0,.02c.13.08.26.16.41.25-.05.03-.07.04-.09.06.04.1.24.09.18.27.09.06.18.13.29.2-.03.03-.06.05-.09.08.23.22.52.32.81.45-.35.04-.68.18-1.05.06.02.11-.04.12-.12.11-.08,0-.15-.02-.23-.03-.02,0-.04-.01-.05,0-.12.14-.2-.01-.31-.04,0,.03-.01.06-.03.11-.09-.06-.17-.11-.27-.17,0,.1-.02.12-.1.1-.06-.02-.14.02-.21,0-.07-.02-.14-.06-.21-.1-.03-.02-.04-.05-.07-.08-.15.12-.18-.05-.28-.11-.01.02-.02.04-.05.08-.14-.13-.27-.25-.41-.38,0,0-.02.02-.06.04-.06-.07-.11-.14-.17-.22,0,.03-.02.06-.03.08-.42-.25-.62-.65-.79-1.11-.02.04-.02.06-.03.07,0,.02,0,.03-.02.08-.02-.09-.04-.16-.06-.23-.03,0-.07,0-.1,0-.14-.09.03-.31-.16-.36-.04-.16-.07-.31-.11-.46-.01,0-.03,0-.04,0-.02.03-.05.06-.09.12-.02-.15-.04-.26-.06-.38,0-.06,0-.15-.09-.15-.09,0-.15.03-.17.13,0,.04-.02.09-.06.13-.02-.07-.04-.14-.05-.21-.06.03-.11.06-.16.08-.04-.34-.22-.87-.34-1.02,0,.11.17.21.04.36.02.06.06.14.08.22.05.15,0,.2-.15.2.03.09.06.17.08.26.01.09,0,.18,0,.31-.05-.02-.09-.03-.14-.05.02.08.04.15.05.22,0,.07,0,.14,0,.22-.05,0-.09.01-.14.02.01.11.08.23-.05.33-.01,0,.02.06.02.09.03.17.07.34.1.5,0,.05-.02.1-.04.19-.05-.07-.08-.11-.11-.15-.06-.09-.12-.18-.18-.27-.01-.02-.03-.05-.04-.04-.17.04-.17-.12-.24-.21l-.1.07-.27-.39s-.06.06-.11.12c-.08-.21-.16-.39-.24-.58-.13.13-.19.13-.27-.07-.11-.26-.31-.49-.29-.81-.03.01-.05.02-.06.03-.01,0-.02.01-.03.02-.12-.08-.07-.29-.27-.32-.01-.21-.03-.43-.04-.65,0-.12,0-.25-.01-.37,0-.02.02-.04.02-.06.09-.23.19-.47.28-.7.03-.07.06-.15.09-.21-.1-.08-.19-.16-.29-.25,0,.1.02.21.01.31,0,.08.06.22-.11.23-.03.12-.07.25-.11.41l-.09-.12c-.05.15-.11.31-.17.46-.02.05-.04.14-.14.12-.01,0-.03.04-.04.07-.03.04-.05.08-.09.13-.04-.04-.06-.07-.08-.1-.01,0-.02,0-.03.02-.05.06-.06.17-.19.15-.01,0-.03.04-.04.06-.02.02-.03.06-.05.07-.18.05-.24.21-.34.33-.04.04-.09.08-.13.12-.02,0-.03-.01-.05-.02,0-.08.02-.17.02-.25,0-.11.04-.25-.01-.33-.08-.11-.03-.2-.01-.3-.14-.07-.04-.18-.04-.27-.18-.13-.09-.31-.13-.49,0,0-.03.01-.03.01-.06-.24-.03-.44.15-.62-.08,0-.13,0-.21,0,.1-.22.19-.43.28-.63ZM9.78,13.16c-.19.03-.37.06-.54.09-.03,0-.07,0-.08.02-.03.11-.1.06-.16.05-.06-.01-.12-.03-.16-.05-.04.03-.07.06-.1.06-.3-.03-.58-.1-.83-.27,0,0-.02,0-.03-.01-.01.03-.03.06-.04.1-.06-.02-.11-.04-.17-.06.28.32.61.56,1.01.68.26.08.49.04.68-.16.07-.07.15-.14.23-.2.06-.04.13-.06.2-.09.01.07.02.14.03.22,0,0,0,.02,0,0,.13-.15.27-.31.41-.47-.17.09-.33.11-.5,0,.01.03.02.06.05.11ZM11.12,14.72c-.23.09-.44.08-.64.01-.28-.09-.57-.19-.85-.28-.18-.06-.36-.13-.53-.19.31.32.68.56,1.07.76.04.02.14.04.15.02.05-.1.14-.07.22-.09.17-.04.34-.07.5-.13.1-.04.19-.11.32-.19-.19-.05-.34-.09-.49-.14,0,0,0,0,0,.01.09.06.17.13.28.21ZM6.06,6.74c-.1.17-.19.32-.27.47.16-.11.32-.22.47-.33.05-.04.1-.09.13-.15.13-.28.26-.56.39-.83,0-.02.01-.04.03-.08-.19.09-.31.18-.36.38-.05.19-.15.36-.23.54-.03.07-.08.1-.15,0ZM9.61,15.21s0,.02,0,.02c.14.1.27.21.41.3.05.03.12.05.18.03.1-.02.19-.07.28-.11,0-.01,0-.02,0-.03-.29-.07-.57-.14-.86-.21ZM9.1,14.94s-.04-.07-.07-.12c.07,0,.11,0,.16,0,0,0,0-.02.01-.03-.23-.15-.46-.3-.69-.45.11.29.28.5.58.59ZM7.41,5.43c.17-.32.34-.63.52-.98-.28.3-.47.6-.52.98ZM7.36,5.95c-.05-.12-.09-.22-.13-.33-.1.22-.09.28.13.33ZM7.41,6.01s-.03,0-.05,0c.02.11.05.22.07.34.01,0,.02,0,.03,0-.02-.11-.04-.23-.06-.34Z"/>
      <path class="cls-1" d="M20.82,6.29c-.11-.01-.22,0-.32-.04-.12-.04-.22-.12-.33-.18-.08.07-.3.04-.42-.06-.02.02-.06.05-.07.04-.16-.09-.38.06-.52-.16,0,.07-.01.1-.02.16l-.49-.32s-.03.03-.06.06c-.06-.03-.11-.06-.17-.1-.16-.1-.35-.16-.39-.4-.05.08.1.16-.05.2.04.04.08.08.15.14-.2.02-.36.04-.53.07,0,.02.02.05.03.07-.17.05-.33.1-.49.15.02.03.03.06.06.12-.09,0-.17.01-.25.02,0,.03,0,.06,0,.11-.12-.02-.22-.03-.34-.05.01.04.02.08.04.14-.09-.02-.17-.03-.26-.05,0,.03,0,.07,0,.12-.21-.04-.42-.07-.63-.11,0,.03,0,.06,0,.11-.14-.03-.27-.06-.41-.1.02.04.04.07.08.13-.25-.04-.47-.08-.69-.11.01.03.03.06.06.12-.32-.11-.6-.22-.91-.33.04.05.06.08.1.12-.05,0-.08-.01-.11-.02-.26-.05-.51-.01-.74.13-.43.26-.82.56-1.1.99-.1.16-.19.33-.28.49-.01-.1-.03-.22-.05-.36-.04.02-.06.04-.08.05,0,0-.01-.02,0-.02.24-.46.53-.88.91-1.24.1-.09.17-.18.18-.32,0-.04.04-.07.06-.12-.05-.07-.11-.16-.17-.26l.02-.02s.09.05.16.09c-.06-.09-.11-.17-.15-.24.01,0,.02,0,.03,0,0-.04.02-.08,0-.11-.07-.12-.15-.24-.23-.36-.02-.04-.09-.08,0-.13,0,0,0-.03,0-.04-.03-.15-.07-.29-.1-.44-.01-.05-.07-.11.02-.17.04-.03,0-.16,0-.25-.02-.1.01-.27.04-.37.03-.1.01-.22,0-.32-.01-.16-.03-.33-.05-.49,0-.04-.03-.07-.06-.1-.07-.11-.15-.21-.23-.32l.04-.04s.1.03.14.06c.12.08.22.18.34.24.16.08.28.21.42.31.21.14.38.31.51.53.04.08.15.12.19.2.06.14.1.29.14.44.02.06.04.13.05.19.01.08.01.16.01.24,0,.1-.02.19-.03.31.05-.03.08-.05.12-.08.01.09.03.17.04.27.13-.16.33-.21.41-.4,0-.02.03-.05.05-.06.17-.1.14-.25.11-.4-.01-.06-.03-.11-.05-.17.01,0,.03-.02.04-.02.06.07.13.13.19.21.08-.08.03-.17,0-.24-.08-.21-.08-.42-.04-.63.01-.06.02-.13.12-.09,0-.14-.03-.28-.02-.41.02-.19.08-.38.12-.58.05.02.08.03.1.04.02-.1.05-.19.07-.29.04,0,.07.01.1.02,0-.01.01-.02.02-.03.01-.05.01-.09.03-.14.06-.14.03-.33.23-.39,0,0,.02-.02.02-.03.1-.12.2-.25.3-.36.02-.02.06-.02.12-.03.08-.11.19-.24.29-.37.14-.16.27-.33.41-.49.02-.02.04-.03.08-.04-.06.29-.13.59-.07.9.07.01.06.07.04.15-.02.07,0,.15,0,.22,0,.15,0,.3,0,.46.04-.01.07-.02.11-.03.16.25-.06.4-.16.58.14.09.12.19.06.32-.09.17-.21.31-.37.43-.04.03-.08.06-.12.1.1.03.19.06.28.09.07-.12.03-.33.26-.4,0-.18.09-.31.25-.42.02.05.05.09.07.15.02-.02.04-.03.05-.05.1-.26.31-.43.45-.66.03-.05.06-.1.14-.07.02,0,.06-.03.09-.04.13-.03.21-.17.37-.14.07.01.16-.07.24-.11.15-.08.29-.15.44-.23.02.03.03.05.04.08.07-.04.14-.08.22-.12.05.08.11.07.17.02.03-.02.07-.03.11-.04.14-.05.15-.04.17.12.12-.03.24-.05.36-.08.02,0,.06-.02.07,0,.11.12.21.02.33,0,0,.03.02.05.03.08.17-.05.32-.18.56-.15-.22.22-.42.42-.62.62.1.1-.02.14-.06.22.01.03.03.05.05.08-.03.03-.06.06-.09.09-.06.05-.11.09-.13.19-.02.09-.14.16-.23.25.01.01.03.03.08.08-.11.1-.22.2-.35.31,0,.08,0,.18.01.31.05-.02.07-.02.08-.03.26-.2.49-.42.71-.66.26-.29.56-.55.9-.76,0,.03.02.06.03.11.15-.08.29-.16.44-.23.07-.04.14-.07.16.05.1-.04.2-.07.3-.11,0,.01,0,.03,0,.04.04.01.08.04.12.04.08,0,.17,0,.25,0,.04,0,.08.05.14.09.1-.02.22,0,.35.03.22.06.46.14.7,0,.04-.02.08-.04.13-.05,0,.16-.1.21-.17.27-.07.06-.13.11-.16.22-.04.13-.16.24-.25.38,0,0,.03.02.06.05-.04.04-.07.07-.1.11-.04.06-.07.13-.12.17-.07.06-.16.11-.25.16.03.15-.11.09-.18.1.03.03.05.06.08.08-.02.02-.05.05-.08.06-.04.02-.08.03-.12.04-.04,0-.07.01-.09.01-.04.05-.06.1-.1.11-.23.07-.45.14-.68.19-.15.03-.3.03-.46.08.12.06.23.13.35.18.03.01.08,0,.11-.02.19-.07.38-.16.58-.23.13-.05.18-.01.23.12-.05.02-.09.03-.14.05,0,.01,0,.03.01.04.2-.06.41-.14.61-.19.21-.05.43-.07.65-.11,0,.02,0,.06.02.1.03,0,.06,0,.1,0,.17.01.34.02.5.04.09.01.18.05.29.07-.04.03-.09.07-.14.11.22.07.46.06.66.22-.07.05-.13.09-.22.15.08,0,.12,0,.17.01.19.01.37,0,.51.2.1.14.26.24.39.37.03.03.03.1.04.16.3.27.44.48.34.55.49.48.77.89.72,1.07-.05-.03-.11-.05-.15-.08-.36-.27-.79-.38-1.22-.46-.16-.03-.34-.02-.51-.04-.33-.03-.67-.07-.93-.34,0,.06,0,.09,0,.14-.18,0-.3-.12-.42-.22-.08.11-.13.09-.39-.07.01.03.02.06.04.08.08.05.17.09.26.13.2.08.41.14.62.22.11.04.22.1.33.16,0,.02,0,.03,0,.05-.07.03-.14.05-.23.08.06.03.11.04.15.07.04.03.06.08.09.11.02.02.05.05.07.06.14.08.28.14.41.22.09.05.21.08.24.21,0,.03.05.05.09.06.18.07.37.14.55.21.07.03.14.06.2.09.02.01.06.05.05.07-.04.13.08.16.14.21.15.13.32.25.47.38,0,.01,0,.03-.01.04-.12,0-.23,0-.38-.02.05.04.08.07.11.1.16.14.29.31.39.5.1.2.22.38.33.58.04.07.11.14.02.22-.01.01,0,.07.02.1.06.15.11.29.17.44-.07.03-.12.05-.17.08.03.14.07.28.1.41.02.08.02.14-.08.14,0,.02,0,.02,0,.03.1.3.05.58-.08.86-.04.08-.03.19-.04.28,0,.08-.02.16-.03.24h-.06c-.12-.38-.24-.77-.37-1.18-.09.11-.14.06-.18,0-.1-.13-.21-.26-.32-.41,0,.06,0,.1,0,.15-.32-.14-.48-.41-.65-.68-.08.19.02.33.07.49.06.16.1.32.15.48,0,.02.01.05,0,.06-.12.08-.03.19-.03.28,0,.04-.02.08-.06.11.01.09.03.18.04.28-.05-.01-.08-.02-.16-.04.03.07.05.12.07.17.01.05.05.1-.03.13-.02,0,0,.09-.01.15-.13,0-.15.12-.18.22-.04.12-.05.27-.13.34-.1.08-.09.19-.14.28-.04,0-.08-.02-.13-.03-.05.18-.05.37-.19.51-.01-.15,0-.29-.03-.43-.02-.15-.08-.28-.16-.41-.12-.21-.26-.41-.39-.61-.12-.18-.22-.37-.32-.56-.02.02-.04.05-.07.09-.03-.05-.06-.08-.08-.12-.03-.06-.03-.13-.13-.13-.02,0-.06-.09-.07-.14-.05-.21-.08-.42,0-.63-.06,0-.14.03-.16,0-.03-.04-.03-.11-.03-.17.03-.36.05-.71.08-1.07,0-.01,0-.02,0-.03-.07.04-.15.08-.25.13.02-.17.05-.31.04-.45-.03-.38.14-.72.19-1.08.01-.07.01-.13.02-.23-.04.05-.07.08-.09.1h-.04c.03-.12.05-.22.07-.31-.02,0-.06-.02-.1-.04,0,.04,0,.1-.01.17-.14-.14-.15-.32-.17-.48-.04-.29-.05-.59-.21-.85-.18-.29-.38-.57-.66-.77-.05.05-.09.09-.15.15.11.12.22.25.34.38-.05.05-.1.09-.14.13.08.16.26.29.13.49.04.11.09.22.11.33.01.04-.04.1-.04.15.02.14.05.28.07.42.02.11.04.23.06.34-.01,0-.02.01-.03.02-.04-.04-.08-.08-.11-.12-.14-.21-.34-.35-.55-.47-.03-.02-.07-.01-.1-.01-.02,0-.04.01-.05,0-.16-.14-.45-.12-.5-.39,0,0-.01-.01-.02-.02-.02.01-.04.03-.08.06-.05-.14-.1-.28-.15-.43-.04.07-.07.13-.1.19-.08.02-.12-.03-.15-.1-.05-.1-.1-.2-.15-.3-.06-.1-.12-.21-.18-.31-.06.02-.1.03-.18.06.08.05.13.09.19.13.06.04.12.08.18.12ZM20.19,5.53c.11.13.22.26.33.39-.05-.17-.1-.34-.19-.49-.1-.18-.16-.36-.17-.57,0-.1-.05-.22-.12-.29-.15-.15-.33-.29-.5-.42-.16-.11-.34-.1-.54-.07.18.11.35.2.53.31-.07.05-.12.07-.17.11.04.02.07.03.09.05.13.09.3.15.37.27.08.14.21.21.29.33,0,0,.02.01.02.02,0,.05.02.09.02.14.03.08.15.13.04.23ZM24.53,8.43c.02-.34.04-.68.05-1.03,0-.03,0-.08-.03-.1-.11-.11-.22-.21-.34-.31-.01,0-.02.02-.03.02.03.5.14.97.35,1.42ZM18.33,3.72c.26-.02.51-.05.76-.07.03,0,.07-.05.09-.08.09-.11.17-.21.25-.32.05-.06.08-.13.13-.19-.01-.01-.02-.02-.03-.04-.07.04-.14.08-.2.12-.04.03-.07.07-.11.09-.07.03-.14.04-.23.06.07.07.02.1-.04.12-.15.05-.3.1-.45.15.06.15-.12.07-.17.15ZM21.53,4.67l-.02.03c.12.08.24.16.36.24-.33-.61-1.36-1.01-1.79-.83.05.03.09.06.14.07.21.04.41.07.62.11.04,0,.12.03.12.04-.01.1.07.08.12.1.11.03.22.05.32.1.05.02.08.09.12.13ZM21.95,4.72c.12.36.48.46.74.68-.19-.29-.44-.51-.74-.68ZM16.45,4.58s0,.02.02.02c.11.02.22.04.33.06.12.02.14.16.25.21.09.04.17.1.3.1-.13-.1-.23-.18-.34-.26-.17-.13-.35-.22-.57-.12ZM16.39,3.43s-.02-.03-.03-.04c-.23.19-.5.35-.69.59,0,.01.02.02.03.03.23-.19.47-.39.7-.58ZM25.43,9.78l.02-.02-.36-.45s-.02.01-.02.02c.12.15.24.3.36.45Z"/>
      <g>
        <path class="cls-1" d="M2.12,10.87c0,.05,0,.09-.03.12-.02.03-.05.05-.09.06-.04.01-.07.02-.11.02-.04,0-.08,0-.12.01h-.13s-.06.03-.1.06c-.04.02-.09.03-.13.03h-.09s-.03,0-.06.02-.07.03-.11.04c-.04.02-.08.03-.12.04-.04.01-.06.02-.08.02-.04,0-.1,0-.18.02-.07.01-.14.03-.21.05-.07.02-.13.04-.18.07-.05.03-.08.05-.08.08,0,.03,0,.06,0,.08,0,.02-.01.03-.01.05,0,0,0,.02,0,.04s0,.04-.01.06c0,.02-.02.04-.03.05-.01.01-.03.02-.05.02-.05,0-.08-.02-.1-.05-.02-.03-.03-.07-.03-.12v-.24s0-.1,0-.1v-.18s0-.08,0-.08v-.1s-.01-.04,0-.07c0-.03.01-.05.03-.05.03,0,.06.01.08.04.02.03.04.06.05.1.01.03.03.06.04.08.01.02.04.03.07.03,0,0,.02,0,.05,0,.03,0,.06-.02.09-.02.03,0,.06-.02.08-.03.03-.01.04-.02.04-.03.02,0,.05-.01.08-.02.03,0,.05,0,.07-.01.02,0,.04-.02.05-.03s.02-.03,0-.06v-.12s0-.02,0-.04c0-.02,0-.04,0-.06,0-.02,0-.04,0-.06,0-.02-.01-.03-.02-.04-.01-.03-.04-.04-.06-.04s-.06.01-.09,0c0,0-.03-.02-.06-.03-.03-.01-.06-.03-.09-.04s-.06-.02-.08-.03-.04-.01-.05-.01c-.03,0-.05,0-.06.02-.01.02-.02.03-.03.05-.01.02-.03.04-.04.05-.02.01-.05.02-.09.02-.01,0-.03,0-.03-.01,0,0-.01-.02-.02-.03,0-.01,0-.03,0-.04s0-.02,0-.03c0,0-.01,0-.02,0,0,0,0,0,0-.02,0,0,0-.02.02-.03,0,0,0-.02,0-.04,0-.01,0-.03,0-.05v-.06s0-.06,0-.07-.01-.04-.01-.07c0-.03,0-.06,0-.07,0-.01,0-.02-.01-.03,0,0,0,0,0-.01,0,0,0,0,0-.02,0-.01,0-.03,0-.06,0-.03,0-.06.01-.09,0-.03.01-.06.02-.08,0-.02.02-.03.04-.03.04,0,.08.01.11.04.03.03.05.06.05.11l.02.07s0,.01.01.03c0,.01.02.03.03.04.01.01.02.03.04.04.01.02.02.03.03.04.06.01.12.04.19.07.07.03.14.07.2.1.04.01.08.03.13.05.04.02.08.04.11.06.05.02.09.04.13.06.04.02.09.03.13.04s.09.03.13.04c.04.02.09.03.14.05.04.02.07.03.11.04s.08.02.13.03.09.02.13.03c.04.01.09.03.13.05.01.01.03.03.04.04.02.02.03.04.05.07v.06ZM1.48,10.83s0-.03-.02-.04c-.01-.01-.03-.02-.05-.03-.02-.01-.04-.02-.05-.02-.02,0-.03,0-.04,0-.02,0-.04,0-.05,0s-.02,0-.03,0c0,0-.02,0-.04,0-.01,0-.04,0-.07-.02h-.03s-.03.01-.04.03c-.01.02-.02.04-.02.06,0,0,0,.02,0,.03,0,.01,0,.03,0,.04,0,.01,0,.03.01.04,0,.01.02.02.03.02.03,0,.05-.01.07-.03.02-.02.03-.03.05-.03h.15s.03,0,.06-.01c.03-.01.04-.02.04-.03Z"/>
        <path class="cls-1" d="M2.94,13.64s.02.09,0,.14c-.02.05-.03.1-.04.14-.04.04-.07.09-.08.13,0,.02-.02.04-.03.06s-.03.04-.05.05c0,0,0,.02-.01.04-.01.02-.03.03-.05.05-.02.02-.04.03-.06.05l-.04.03s-.06.02-.11.03-.08.01-.13.01c-.04,0-.08,0-.13,0s-.08,0-.1,0c-.02,0-.04,0-.05-.02s-.03-.02-.04-.03c-.01-.01-.03-.02-.05-.02-.02,0-.04,0-.06,0s-.05.03-.08.06c-.03.03-.06.06-.09.1s-.05.07-.07.11c-.02.03-.03.06-.03.08,0,.03-.02.07-.03.1s-.03.07-.05.1-.03.07-.03.1c0,.04,0,.07,0,.11,0,.01,0,.04,0,.07,0,.03,0,.06,0,.08,0,.02-.01.03-.02.03,0,0-.02,0-.04,0-.03,0-.05,0-.07-.02-.02-.02-.04-.04-.06-.07s-.03-.05-.04-.08c0-.02-.02-.04-.01-.04,0-.02,0-.04,0-.07-.01-.02-.02-.05-.02-.06,0-.07.02-.13.03-.16s.02-.07.02-.11c0-.01,0-.04,0-.06,0-.03.02-.06.03-.09,0-.03.02-.07.03-.1.01-.03.02-.06.03-.09.02-.04.04-.08.06-.11.02-.03.04-.06.06-.09s.04-.05.05-.07c.02-.02.03-.04.03-.07,0-.04,0-.07.02-.09,0-.02,0-.05,0-.08-.01-.02-.03-.04-.05-.05-.02,0-.05,0-.07,0s-.05,0-.07.02c-.03.01-.05.02-.06.02l-.13.11-.06.03c-.05.02-.08.06-.09.1-.01.05-.01.09-.01.14s0,.09,0,.13-.02.07-.05.08c-.01,0-.03,0-.05,0-.02,0-.03-.02-.04-.03l-.05-.11-.06-.19-.03-.07-.07-.15-.03-.05-.06-.12s-.01-.03-.02-.07c-.01-.04-.03-.07-.04-.12-.01-.04-.02-.08-.02-.12,0-.04,0-.06.03-.07,0,0,.02,0,.02,0,.01,0,.02,0,.03.01.01,0,.02.01.04.02,0,0,0,.02.01.03,0,.01,0,.03.01.04,0,.02.01.03.02.05l.03.06s.05.07.09.09c.04.02.07.02.1,0l.33-.16.51-.24.24-.08s.04-.03.07-.05.05-.03.08-.05c.02-.02.04-.04.06-.06.01-.03.02-.05.01-.08l-.06-.12s-.02-.05-.03-.07c0-.03-.01-.05,0-.07,0-.03,0-.05.02-.07s.04-.04.07-.06c0,0,.01,0,.03,0,.01,0,.03.01.04.02.01,0,.03.02.04.03l.28.52.16.33s0,.02.02.03c.01.01.02.03.03.05.01.02.03.04.04.06l.06.12ZM2.47,13.5s-.01-.02-.02-.03c0,0-.02-.02-.03-.03,0-.01-.02-.02-.04-.03,0-.01-.02-.03-.04-.03-.02,0-.05,0-.08.01l-.05.03-.12.06-.05.03s-.03.01-.05,0-.03,0-.05,0h0s0,.03,0,.03,0,0-.02.01c-.02,0-.04.02-.06.03-.01.02-.02.04-.03.07,0,.03,0,.05,0,.08,0,.02,0,.05.02.06.02.02.03.03.05.04.01.02.03.03.04.04.01,0,.02.02.03.03v.08s.04.05.07.05c.03,0,.06.01.1,0,.03,0,.07,0,.1-.01.03,0,.05,0,.06,0l.08-.06s.03-.02.04-.03c.01,0,.02-.03.03-.05.01,0,.03-.02.06-.03.02-.02.04-.04.04-.06,0,0,0-.02-.01-.05,0-.03-.01-.06-.02-.09,0-.03,0-.07-.02-.1s-.01-.05-.02-.07Z"/>
        <path class="cls-1" d="M3.83,15.03l.06.12.04.05s.02.06.03.08c0,.03.01.05.02.07,0,.02,0,.04,0,.05,0,.04.02.08.04.12.02.04.03.09.02.13,0,.03-.01.06-.03.1s-.03.07-.03.1c0,.1-.02.19-.05.24s-.07.1-.11.13l-.19.14-.08.06s-.06.03-.11.05c-.05.02-.11.03-.17.05-.06.01-.12.03-.17.04-.05.01-.09.02-.1.02-.05.02-.1.02-.15,0-.05-.01-.1-.03-.13-.05-.08-.02-.15-.04-.22-.05-.06-.02-.12-.05-.16-.11-.02-.02-.03-.04-.04-.07-.01-.02-.03-.05-.06-.09,0,0-.01-.02-.02-.03,0-.01-.02-.02-.03-.03-.01-.01-.03-.03-.04-.04l-.04-.05s-.02-.04-.04-.06c-.01-.03-.02-.06-.03-.08-.01-.03-.02-.07-.03-.1-.02-.07-.03-.14-.05-.21-.01-.07,0-.15.03-.23.06-.11.13-.22.2-.33.07-.11.15-.2.24-.28.02-.02.04-.03.05-.03.02,0,.04-.02.06-.02.02,0,.04-.01.06-.02.02,0,.05-.02.08-.03.03-.02.05-.04.09-.05.03-.01.06-.02.1-.03,0,0,.03-.01.07-.02s.09-.01.14-.01.1,0,.15,0c.05,0,.08.02.09.04l.09.05s.04.04.05.06.04.03.07.04c.03.01.05.03.07.04.02.01.04.03.05.05l.11.13.04.05ZM3.43,14.96s-.07-.05-.14-.04c-.07,0-.14.02-.21.03-.08.02-.14.04-.2.06-.06.03-.1.04-.11.05l-.05.04-.17.13s-.05.07-.08.14-.04.16-.06.24c-.01.09-.02.18-.01.26,0,.09.02.15.06.2l.04.05s.08.07.13.1.12.05.18.06c.07.01.13,0,.2,0,.07-.01.13-.04.18-.08l.08-.06.18-.15s.06-.06.08-.09.03-.06.03-.09c0-.03.02-.07.02-.11,0-.04.03-.09.05-.16,0-.02,0-.05,0-.08,0-.03,0-.06,0-.09,0-.03,0-.06-.01-.09,0-.03-.02-.05-.03-.07l-.04-.05s-.03-.03-.04-.05c-.01-.02-.03-.04-.04-.07-.01-.02-.03-.05-.04-.08Z"/>
        <path class="cls-1" d="M5.86,17.03s.02.02.04.04c.02.02.03.04.04.05.01.02.02.04.03.05s.01.02,0,.03c-.04.04-.07.06-.12.07-.04,0-.08-.01-.12-.04l-.08-.07s-.05-.03-.07-.03-.04,0-.06,0c-.02,0-.04.02-.06.03-.02.02-.04.03-.06.04-.02,0-.03,0-.05.01-.02,0-.03,0-.05,0-.02,0-.04,0-.06.01-.02,0-.04,0-.05.01-.03.01-.07.03-.12.05-.05.02-.11.05-.17.08-.06.03-.12.07-.18.1-.06.04-.1.08-.14.11l-.08.1-.08.06s-.01.02-.03.04c-.01.02-.03.04-.04.06s-.02.04-.02.06,0,.03,0,.04c0,.02.03.05.06.09s.06.09.09.14c.03.05.05.09.07.14.02.04.02.08,0,.09,0,0-.02.02-.02.02-.02.01-.03.01-.04,0-.03,0-.05,0-.07,0s-.04,0-.06,0c0,0-.02,0-.03,0s-.02,0-.04.01-.03,0-.04.01c-.01,0-.03,0-.04-.01-.01-.01-.03-.03-.04-.06-.01-.03-.03-.05-.06-.08l-.18-.15s-.03-.03-.04-.04c-.01-.01-.02-.03-.03-.04-.01-.02-.02-.03-.03-.05l-.12-.1s-.06-.04-.08-.05c-.02,0-.05-.02-.08-.05l-.05-.04c-.06-.05-.1-.1-.1-.13s.01-.07.05-.12c.03-.03.06-.05.1-.07.04-.02.08,0,.12.02l.1.14s.03.02.05.02.04.01.06.01c.02,0,.04,0,.05,0s.03-.02.04-.04l.23-.32s.02-.03.03-.05c.01-.02.03-.03.05-.04,0-.01.02-.02.02-.04s.01-.03.02-.04c.03-.04.05-.08.06-.12s0-.1,0-.18c.01-.04,0-.08,0-.14s-.03-.11-.04-.17c.01-.03.02-.07.02-.12,0-.05,0-.08.02-.12,0-.02,0-.03-.02-.05-.01-.01-.02-.03-.03-.05-.03-.04-.05-.07-.08-.11-.02-.04-.03-.07-.03-.11,0-.04.01-.07.05-.11.03-.03.05-.05.08-.06.03,0,.06,0,.1.04l.13.11s.04.05.06.08.03.05.04.06l.13.11s.01.01.03.03c.01.01.03.03.04.04.02.01.03.03.05.05.02.02.03.03.04.04l.06.05s.02.02.02.02c0,0,0,.01-.02.03-.01.01-.03.02-.05.03-.02,0-.05,0-.07.01-.02,0-.05.01-.07.02-.02,0-.04.02-.06.04-.02.02-.03.05-.03.1,0,.05-.01.1-.01.15,0,.06,0,.12,0,.19,0,0,0,.02-.01.03,0,.01-.01.03-.01.04,0,.01,0,.03,0,.04,0,.01,0,.02,0,.03.01,0,.03.01.06,0,.03,0,.06-.02.09-.03.03-.01.06-.03.08-.04.03-.01.05-.02.06-.02,0,0,.02-.01.05-.02l.09-.02s.06-.02.09-.03c.03-.01.05-.02.06-.04,0-.01.01-.03,0-.05,0-.02-.01-.04-.02-.06,0-.02-.01-.05-.01-.07s0-.05.03-.08c0,0,.02,0,.03,0s.02,0,.04.01c.02,0,.03.01.04.02s.02.02.03.02l.02.03s.02.02.02.03c0,0,.01.01.02.02l.05.04s.06.03.08.05c.02.01.05.04.1.08.02.02.03.03.05.03.01,0,.03.01.04.01s.02,0,.03.01c.01,0,.02.01.04.03Z"/>
        <path class="cls-1" d="M6.97,17.65s.07.06.08.09c0,.03,0,.07,0,.1-.01.03-.02.07-.04.11-.02.04-.04.07-.05.1l-.07.11s0,.07-.01.12-.02.09-.04.13l-.05.07s-.01.03-.02.06c0,.04-.02.08-.03.12-.01.04-.02.09-.03.12s-.02.06-.03.08c-.02.04-.05.09-.08.16-.03.07-.06.14-.08.21-.02.07-.04.13-.04.19s0,.09.02.11c.03.02.05.03.06.05.01.02.02.03.04.04,0,0,.01.01.03.02.01.01.03.03.04.04.01.02.02.04.03.05,0,.02,0,.04-.01.06-.03.04-.06.06-.09.06-.04,0-.07-.02-.11-.04l-.19-.14-.08-.05-.15-.09-.07-.04-.09-.05s-.03-.02-.06-.04-.03-.04-.02-.05c.02-.03.04-.04.08-.04.04,0,.08,0,.12.01.04,0,.06.01.09.01.03,0,.05-.01.07-.04,0,0,0-.02.02-.05.01-.03.02-.05.03-.09.01-.03.02-.06.02-.09s0-.04,0-.05c0-.02.02-.05.03-.07.01-.03.02-.05.03-.07,0-.02,0-.04,0-.06s-.02-.03-.04-.04l-.1-.07s-.02-.01-.03-.02c-.02-.01-.03-.02-.05-.03-.02-.01-.04-.02-.06-.03-.02,0-.03,0-.04,0-.03,0-.05,0-.06.03s-.02.05-.04.08c-.01,0-.03.01-.06.03-.03.01-.05.03-.08.05s-.05.04-.07.05-.03.03-.04.03c-.02.02-.02.05-.01.06,0,.02.02.04.02.06.01.02.02.04.02.06s0,.06-.03.09c0,.01-.02.02-.03.02-.01,0-.03,0-.04,0s-.03,0-.04-.01c-.01,0-.02-.01-.03-.02,0,0,0,0-.01,0s-.01,0-.02,0-.01-.02-.02-.03c0,0-.02-.01-.03-.02-.01,0-.02-.02-.04-.03l-.05-.04s-.05-.03-.07-.03c-.02,0-.04-.01-.07-.03-.03-.02-.05-.03-.06-.03s-.02,0-.03,0c0,0-.01,0-.01,0,0,0,0,0-.01,0l-.05-.04s-.05-.04-.07-.06c-.02-.02-.04-.04-.05-.06-.01-.02-.02-.04,0-.05.02-.04.06-.06.09-.07.04,0,.08,0,.12.02l.07.02s.01,0,.03,0c.01,0,.03,0,.05,0,.02,0,.04,0,.06,0,.02,0,.04,0,.05,0,.04-.04.1-.08.17-.12s.13-.08.19-.11c.03-.03.07-.05.11-.08.04-.02.08-.04.11-.06.04-.02.08-.05.12-.08.04-.03.07-.05.11-.08.03-.03.07-.06.11-.09.04-.03.08-.06.12-.09.03-.02.06-.05.09-.07.03-.03.06-.06.09-.09.03-.03.06-.06.1-.09s.07-.06.11-.09c.02,0,.04,0,.06,0,.02,0,.05,0,.08,0l.05.03ZM6.59,18.17s-.03-.01-.05,0c-.02,0-.04.01-.05.02-.02,0-.03.02-.05.03s-.02.02-.03.03c-.01.02-.02.03-.03.04,0,0-.01.02-.02.02,0,0-.02.01-.02.02-.01,0-.03.03-.05.05l-.02.02s0,.03,0,.05.02.04.04.05c0,0,.01.01.03.02s.03.02.04.02.03,0,.04,0c.01,0,.02,0,.03-.02.02-.03.02-.05.02-.07,0-.02,0-.04,0-.06l.08-.13s.01-.03.02-.06c0-.03,0-.04,0-.05Z"/>
        <path class="cls-1" d="M8.58,18.7s.05.04.07.07c.02.03.02.06,0,.09l-.03.06s-.06,0-.09,0c-.02,0-.04,0-.07,0-.02,0-.04,0-.04,0l-.09-.05s-.08-.03-.12-.01c-.04.01-.07.04-.09.08l-.05.09c-.03.06-.07.11-.11.17-.05.06-.09.12-.14.17l-.09.17-.09.17-.05.09-.02.04s0,.02-.01.03,0,.04,0,.06c0,.02,0,.04,0,.05,0,.02.02.03.03.04l.09.05.09.05.09.05s.03,0,.06,0,.07,0,.12,0,.08,0,.13,0c.04,0,.07,0,.09-.01.03,0,.05-.01.07-.02.02,0,.04,0,.06,0,.03-.02.05-.04.05-.04,0,0,.02,0,.04.01.01,0,.03.02.04.05.02.03.02.04.02.06,0,0-.02.02-.06.06-.04.03-.08.07-.14.11-.05.04-.1.08-.16.11-.06.03-.1.05-.13.06-.01,0-.03,0-.06,0-.03-.01-.06-.03-.1-.04-.04-.02-.08-.04-.13-.06l-.09-.05-.06-.03s-.08-.05-.12-.08-.07-.05-.09-.04h-.05s-.17-.05-.17-.05c0,0-.02-.01-.04-.02-.02-.01-.04-.03-.06-.05s-.04-.03-.06-.05-.03-.02-.04-.02c-.02,0-.03-.01-.05-.02-.02,0-.03,0-.04,0-.02,0-.03,0-.05,0-.02-.01-.04-.03-.04-.04,0-.02,0-.03,0-.05,0-.02,0-.03.01-.05s.01-.03.02-.04c.02-.04.05-.06.08-.06.03,0,.07.01.1.02.04,0,.07.01.11,0,.04,0,.07-.03.1-.09l.13-.26.15-.22.06-.11s.01-.02.03-.05c.02-.02.03-.05.05-.07.02-.03.04-.06.07-.09,0-.02.01-.03.01-.06,0-.02,0-.03,0-.05l.02-.04c.03-.06.04-.1.04-.13,0-.03-.02-.06-.04-.08s-.03-.05-.04-.07,0-.06.02-.1c.01-.02.02-.04.04-.05.02,0,.03-.02.05-.02s.03,0,.05,0c.02,0,.03,0,.03,0l.68.34Z"/>
        <path class="cls-1" d="M11.74,19.96s.08.05.1.09c.02.05.02.09,0,.12-.01.04-.04.06-.09.07-.04,0-.09,0-.14,0-.05,0-.1-.02-.14-.04s-.07-.03-.07-.03c-.02,0-.06.01-.1.02s-.07.02-.1.03c-.04.02-.07.04-.12.06-.04.03-.08.05-.12.07-.04.02-.07.05-.1.07-.03.02-.05.04-.05.05,0,.02,0,.04,0,.05,0,.02.01.04.02.08,0,.03.01.06.03.09.01.03.03.06.04.09.01.03.02.05.04.07s.02.04.03.05c0,.02.02.05.03.08,0,.03.02.07.02.1,0,.04.02.07.03.11s.02.06.04.09c.01.02.03.05.05.09.02.03.04.06.06.1.02.04.04.08.07.12l.07.02s.04.01.07.02c.03,0,.05.03.06.06,0,.02.01.05.01.09,0,.04,0,.08-.02.11-.01.03-.04.06-.08.08s-.1.01-.18-.01c-.04-.01-.07-.03-.09-.04-.02,0-.04-.02-.06-.03-.02-.01-.03-.02-.05-.04s-.04-.04-.06-.06l-.05-.06s-.04-.05-.06-.08c-.02-.03-.03-.07-.04-.11-.03-.07-.06-.15-.09-.24-.03-.09-.06-.18-.08-.26,0-.07-.02-.13-.04-.19s-.03-.11-.05-.15c-.02-.04-.05-.06-.08-.07-.01,0-.03,0-.05,0-.02,0-.03.02-.04.03-.01.04-.02.08-.02.12,0,.04,0,.08-.02.11l-.02.07v.07s-.03.09-.03.09c-.02.06-.02.11,0,.15.03.04.06.08.09.11.04.03.07.06.1.08.03.02.05.04.04.06,0,.03-.02.05-.04.06-.02.01-.04.02-.06.03-.02,0-.04,0-.06,0-.02,0-.03,0-.03,0l-.04-.03s-.02,0-.03,0c0,0-.01,0-.02,0l-.17-.06s-.03-.02-.05-.03c-.01,0-.03-.02-.04-.03s-.02-.03-.03-.04l-.09-.04s-.03,0-.07-.01-.08-.01-.12-.01c-.04,0-.09-.01-.13-.02-.04,0-.08-.02-.1-.02h-.04s-.03-.03-.05-.05c-.02-.02-.02-.04-.02-.06,0-.01.02-.03.04-.05.02-.02.04-.04.06-.05.03-.02.05-.03.07-.04.02-.01.04-.01.06,0h.03s.11.02.11.02l.12.04s.02,0,.03-.01.01-.03.02-.04l.02-.06s.01-.03.02-.04c.02-.03.02-.05.02-.08,0-.05.02-.09.04-.12.02-.04.03-.07.05-.1l.02-.06.05-.13s.02-.06.03-.09c0-.03,0-.05,0-.07l.06-.15s.03-.06.04-.08c.01-.02.02-.04.03-.06.01-.02.02-.03.02-.05.03-.07.03-.12,0-.16-.03-.04-.06-.07-.1-.1s-.07-.05-.11-.07c-.03-.02-.04-.05-.02-.09.01-.03.02-.05.05-.06s.04-.02.07-.02c.02,0,.05,0,.07,0,.02,0,.04.01.06.02l.05.02h.04s.02.02.04.03l.05.03s.04.02.05.03.03.01.04.02l.09.03.14.02s.05.03.08.06c.03.03.04.06.02.1,0,.01-.01.03-.02.04s-.01.01-.02.01c-.02,0-.04,0-.06,0-.02,0-.04.01-.07.02-.02.01-.04.03-.06.04-.02.02-.03.04-.04.06l-.02.06s-.02.06-.02.12c0,.03,0,.06-.01.09v.03s0,.03,0,.04c0,.01,0,.02,0,.03,0,0,0,.01.02.02.01,0,.02,0,.03,0,.01,0,.02-.01.04-.02.05-.03.12-.09.21-.16.04-.03.08-.07.12-.1.04-.03.08-.07.11-.09.05-.05.1-.08.14-.1.04-.02.07-.03.1-.02h.04s.03.02.04.01c.01,0,.03,0,.06,0l.28.1Z"/>
        <path class="cls-1" d="M12.77,20.29s.02,0,.03.02c.01.01.03.02.05.03.02,0,.03.02.05.03.02,0,.03.01.04.01,0,0,0,0,.02.02s.02.03.02.04c0,.02.01.03.01.05,0,.02,0,.04,0,.05,0,.01-.02.01-.05.01-.03,0-.06,0-.1,0-.04,0-.07,0-.1,0s-.05,0-.05.02l-.07.23s0,.04,0,.06c0,.01,0,.03,0,.04,0,.01,0,.03,0,.03l-.09.15s0,.02,0,.04c0,.02,0,.04,0,.06s0,.04,0,.06v.04s-.03.18-.03.18c-.02.05-.03.09-.06.13-.02.04-.04.06-.04.08l-.03.09s-.01.02-.03.03-.03.03-.05.08c0,0,0,.02,0,.04,0,.01,0,.03.01.04s.01.02.02.04.02.02.02.02l.07.04c.05.05.07.1.05.17,0,.03-.03.04-.07.05-.04,0-.08,0-.12-.01l-.06-.02-.06-.02-.06-.02-.11-.08s-.03,0-.06,0c-.03,0-.05,0-.08,0-.03,0-.06,0-.08,0-.03,0-.04,0-.05,0-.01,0-.03-.02-.05-.04-.02-.02-.03-.04-.02-.06,0-.02.03-.04.06-.05.03-.01.06-.02.1-.03.04,0,.07-.02.1-.04.03-.02.04-.04.05-.08,0-.04,0-.07.01-.08.01-.01.02-.03.03-.04l.03-.09.07-.22.15-.49v-.1s.02-.05.03-.07c.01-.02.02-.03.03-.05.01-.01.02-.03.02-.04.01-.05.02-.08.02-.11s0-.05,0-.07c0-.01-.02-.03-.03-.03-.01,0-.03-.01-.04-.02s-.03-.01-.04-.02c-.02,0-.03-.02-.04-.03-.01-.01-.02-.03-.02-.05,0-.02,0-.05.02-.1,0,0,0-.02.01-.03,0,0,0-.01.02-.02,0,0,.01,0,.02,0l.06.02.12.04s.02,0,.03.01.02.01.03.02c0,0,.02.02.03.03.01,0,.03,0,.05.01.02,0,.04,0,.06,0,.02,0,.05,0,.07,0h.04s.02.01.04.01h.02Z"/>
        <path class="cls-1" d="M13.58,20.55s.05.02.07.02c.02,0,.04.02.05.04.02.03.04.05.04.06s.01.04.03.06c0,.05.02.08.05.1.03.02.05.04.08.07.02.03.04.06.06.1.02.04.03.08.05.13s.04.09.05.12c.02.04.03.08.05.1.02.05.04.1.05.14s.04.09.09.13c.01.01.03.05.06.1.03.05.06.11.09.17.03.06.07.11.1.16.03.05.06.08.09.08.02,0,.03,0,.04,0,0,0,.01-.01.02-.02,0,0,0-.02,0-.03,0-.01,0-.02,0-.03l.07-.25s.02-.04.04-.07.04-.06.04-.09l.08-.29s-.02-.02-.03-.04c-.01-.02-.02-.04-.03-.06-.01-.02-.02-.04-.03-.06-.01-.02-.02-.03-.03-.03l-.06-.02s-.03-.01-.05-.02c-.02-.01-.03-.03-.04-.04-.01-.02-.02-.03-.03-.04,0-.01-.01-.02-.01-.03l.03-.11s.01-.04.03-.05c.01-.01.03-.02.05-.02.02,0,.03,0,.05,0,.02,0,.03,0,.05.01l.06.02s.04.01.06.02c.02,0,.05.02.08.03s.05.02.08.03c.02,0,.05.02.07.02l.47.12s.09.03.12.06c.03.03.05.07.03.12,0,.02-.01.03-.02.04,0,.01-.02.03-.04.04-.06.02-.12.02-.16,0-.05-.02-.1-.03-.14-.04h-.1s-.06-.01-.06-.01c-.02,0-.04,0-.06.03s-.03.05-.04.08l-.03.13v.03s-.06.2-.06.2l-.04.16s0,.04,0,.07,0,.05,0,.07l-.05.19-.15.31s0,.03,0,.06c0,.02,0,.05,0,.08,0,.03,0,.05,0,.07,0,.02,0,.04,0,.06,0,0,0,.02-.01.05s-.02.04-.03.07c0,.02-.02.04-.03.05-.01.01-.03.02-.04.02,0,0-.02,0-.05-.01s-.04-.01-.07-.02-.04-.02-.06-.03c-.02,0-.02-.02-.02-.02-.02-.04-.04-.08-.05-.14,0-.05-.02-.09-.05-.13-.02-.04-.03-.07-.05-.1s-.03-.06-.05-.08c-.02-.03-.03-.05-.04-.08s-.02-.06-.03-.1c0-.06-.03-.13-.07-.19-.04-.07-.08-.13-.12-.2-.04-.07-.09-.14-.13-.2s-.07-.13-.09-.2c0,0,0-.02,0-.04s0-.03-.01-.05c0-.02-.02-.03-.03-.05s-.02-.02-.04-.03c-.04,0-.07.02-.09.09l-.07.25-.04.13-.02.2s-.02.07-.03.09c0,.02-.02.04-.03.07-.01.04,0,.08.01.11.02.03.05.05.08.08.04.02.08.04.12.06s.08.04.12.05c.04.02.06.04.08.07.02.03.03.06.02.09,0,.02-.01.03-.03.03-.01,0-.03,0-.04,0l-.39-.1-.22-.03s-.04-.04-.06-.05c-.03,0-.05-.02-.06-.02l-.06-.02s-.08-.03-.1-.05-.05-.03-.08-.04l-.12-.03-.04.03-.07-.02s0-.02.01-.05c0-.02,0-.04.02-.06,0-.03,0-.05.02-.08,0-.02.02-.03.04-.04.02,0,.04-.01.06,0,.03.01.06.02.07.02h.02s0,0,0,0h.02s.03.01.07.02c.03,0,.08.02.14.04.02,0,.03,0,.04,0,.01,0,.03-.02.04-.03.01-.01.02-.02.03-.04,0-.02.01-.03.01-.03,0,0,0-.02,0-.03,0-.02,0-.03,0-.05,0-.04.02-.06.02-.08s0-.04,0-.06c0-.02,0-.03,0-.04,0-.01,0-.03,0-.05,0-.02.01-.03.02-.06,0-.02.02-.04.03-.06.01-.02.03-.04.04-.06l.06-.23s0-.03,0-.05c0-.02,0-.04-.02-.06,0-.03.02-.04.03-.05,0,0,.02,0,.02,0,0,0,0-.02,0-.04s0-.04-.01-.05c0-.02,0-.03,0-.05,0-.02,0-.03,0-.03.01-.05,0-.09-.03-.12-.03-.03-.06-.07-.1-.1-.04-.03-.07-.07-.1-.11-.03-.04-.04-.09-.02-.14.01-.02.03-.04.04-.05.01-.01.03-.02.04-.03.01-.01.03-.02.04-.01l.32.08Z"/>
        <path class="cls-1" d="M17.71,21.56s.06.02.09.04c.02.02.03.05.03.09v.07s-.07.03-.09.03c-.02,0-.04.02-.06.02-.02,0-.03,0-.04,0l-.1-.02s-.09,0-.12.02c-.03.02-.05.06-.06.11l-.02.1c-.01.06-.03.13-.06.2-.03.07-.06.14-.08.2l-.04.19-.04.19-.02.1v.04s0,.02,0,.04c0,.02,0,.04,0,.06,0,.02.01.04.02.05.01.01.02.02.04.03l.1.02.1.02.1.02s.03,0,.06,0c.03,0,.07-.02.11-.03s.08-.02.12-.04c.04-.01.07-.03.09-.04.02-.01.04-.03.07-.04.02-.01.04-.02.06-.01.02-.03.03-.05.04-.05,0,0,.02,0,.04,0,.01,0,.03.01.05.03.02.02.03.04.03.05,0,0-.02.03-.04.07-.03.04-.06.09-.1.15s-.08.1-.12.15c-.04.05-.08.08-.11.09,0,0-.03.01-.06,0-.03,0-.07,0-.11-.01-.04,0-.09-.01-.14-.02l-.1-.02h-.07s-.1-.04-.14-.05c-.05-.02-.08-.02-.1-.02h-.05s-.17,0-.17,0c0,0-.02,0-.04-.01-.02,0-.04-.02-.07-.03-.03-.01-.05-.02-.07-.03-.02,0-.04-.01-.04-.01-.02,0-.04,0-.05,0-.02,0-.03,0-.04,0-.02,0-.03,0-.05,0-.02,0-.04-.02-.05-.03-.01-.01-.02-.03-.02-.05s0-.03,0-.05v-.04s.04-.08.07-.08c.03,0,.07,0,.11,0,.04,0,.07,0,.11-.02.04-.01.06-.05.07-.12l.05-.29.08-.25.02-.12s0-.03.01-.05.02-.05.03-.08c.01-.03.02-.07.04-.11,0-.02,0-.04,0-.05s-.01-.03,0-.05v-.04c.02-.06.02-.11,0-.14-.02-.03-.03-.05-.06-.07-.02-.02-.04-.04-.06-.06s-.02-.05-.01-.1c0-.02.01-.04.03-.06.01-.02.03-.03.05-.04.01,0,.03-.01.05-.02s.03,0,.03,0l.75.14Z"/>
        <path class="cls-1" d="M19.44,21.85s.06.02.09.04c.03.02.04.05.03.09v.07s-.07.03-.09.04c-.02,0-.04.02-.06.02-.02,0-.03.01-.04.01l-.11-.02s-.09,0-.12.02-.05.06-.06.11l-.02.1c0,.06-.03.13-.06.2-.03.07-.05.14-.08.2l-.03.19-.03.19v.1s-.02.04-.02.04c0,0,0,.02,0,.04s0,.04,0,.05c0,.02.01.04.02.05,0,.01.02.02.04.03h.1s.1.03.1.03h.1s.03.01.06,0,.07-.02.11-.03c.04-.01.08-.03.12-.04.04-.01.07-.03.09-.04.02-.01.04-.03.06-.04s.04-.02.06-.01c.02-.03.03-.05.04-.05s.02,0,.04,0c.01,0,.03.01.06.03.02.02.03.04.03.05,0,0-.02.03-.04.08-.03.04-.06.09-.1.15-.04.05-.08.11-.12.15-.04.05-.08.08-.11.1,0,0-.03.01-.06.01-.03,0-.07,0-.11,0-.04,0-.09-.01-.14-.02h-.1s-.07-.03-.07-.03c-.05,0-.1-.02-.14-.04-.05-.02-.08-.02-.1-.01h-.05s-.17.02-.17.02c0,0-.02,0-.04-.01-.02,0-.04-.02-.07-.02-.02,0-.05-.02-.07-.03-.02,0-.03-.01-.04-.01-.02,0-.04,0-.05,0s-.03,0-.04,0c-.02,0-.03,0-.04.01-.03,0-.05-.01-.06-.03s-.02-.03-.02-.05,0-.03,0-.05c0-.02,0-.03,0-.04,0-.05.03-.08.06-.08s.07-.01.11-.01c.04,0,.07-.01.11-.02.03-.02.06-.06.07-.12l.05-.29.07-.26.02-.12s0-.03.01-.05.01-.05.02-.08c0-.03.02-.07.03-.11,0-.02,0-.04,0-.05s-.01-.03,0-.05v-.04c.02-.06.01-.11,0-.14-.02-.03-.03-.05-.06-.07-.02-.02-.04-.04-.06-.05-.02-.02-.02-.05-.01-.1,0-.02.01-.04.03-.06s.03-.03.04-.04c.01,0,.03-.01.05-.02.01,0,.02,0,.03,0l.75.12Z"/>
        <path class="cls-1" d="M21.23,21.99s.06.02.07.03c.02.02.03.04.03.06,0,.03,0,.05,0,.07,0,.02,0,.05,0,.06v.07c-.03.05-.06.1-.1.14-.04.04-.09.06-.14.05-.03,0-.07-.02-.11-.05s-.08-.04-.13-.05c-.05,0-.1,0-.16.04-.05.03-.1.07-.15.11-.04.04-.08.09-.11.14-.03.05-.05.08-.05.11v.1s-.03.13-.03.13c0,.03,0,.08,0,.14s0,.14.02.21.03.14.06.2c.03.06.07.09.12.1l.07-.02c.05,0,.1,0,.15,0,.05,0,.09-.03.14-.06.06-.05.11-.09.16-.12.02,0,.03-.02.05-.02s.04,0,.05,0c0,0,0,.01.01.02.01.02.02.04.01.05,0,.05-.03.11-.08.17-.05.06-.1.12-.16.17-.06.05-.12.1-.18.13s-.11.05-.14.05h-.03s-.07,0-.09,0c-.03,0-.05,0-.07,0-.02,0-.04,0-.05,0-.02,0-.05-.01-.08-.03s-.07-.04-.1-.07-.07-.05-.09-.08c-.03-.03-.04-.05-.05-.07,0,0-.02-.03-.03-.07s-.02-.08-.03-.13-.02-.1-.02-.15c0-.05,0-.08,0-.11v-.11s0-.03,0-.04c-.01-.03-.01-.05-.01-.06,0-.03.02-.05.03-.08,0-.02.01-.04.02-.06,0-.02.01-.04.01-.06v-.08s0-.01,0-.03v-.03s-.02-.03-.02-.04l.05-.1v-.07s.05-.07.07-.1c.02-.03.03-.05.05-.07.02-.02.03-.04.05-.05.01-.04.04-.08.07-.11.03-.03.07-.06.11-.08.04-.03.09-.05.14-.07.05-.02.09-.04.14-.06.03,0,.05,0,.08,0,.02,0,.04,0,.06,0,.02,0,.03,0,.04,0h.07s.13.03.13.03l.11-.03Z"/>
        <path class="cls-1" d="M21.65,23.46s.03.02.07.04c.04.03.08.06.12.09.04.04.08.08.11.11.03.04.05.07.04.1,0,.02-.02.04-.06.08s-.09.08-.14.12-.1.07-.15.1c-.05.03-.08.04-.1.04-.03,0-.05-.02-.07-.05s-.04-.06-.06-.09c-.02-.04-.03-.07-.04-.1-.01-.03-.01-.05-.01-.06,0,0,.01-.03.04-.07.02-.03.05-.07.08-.12.03-.04.06-.08.09-.12s.06-.07.08-.08Z"/>
      </g>
      <path class="cls-1" d="M18.38,6.08h.06s.1.04.1.04h.05s.05.03.07.04c.02.01.03.02.05.03.02,0,.03.02.04.03.02.02.05.03.09.05s.06.04.09.07c0,0,.01.02.02.03,0,.01.01.03.02.04s.01.03.02.04c0,.01.01.02.02.03.06.06.1.12.11.17.01.05.02.1.01.14l-.03.18v.09s-.02.05-.05.09-.04.08-.07.12c-.03.04-.05.08-.08.12-.02.04-.04.06-.05.07-.02.04-.04.07-.08.09s-.07.03-.1.04c-.06.04-.11.07-.16.1-.05.03-.1.04-.15.03-.03,0-.05,0-.07-.02-.02,0-.05-.01-.09-.02h-.11s-.05-.02-.05-.02c-.01,0-.03,0-.05-.01-.02,0-.04-.02-.06-.03-.02,0-.05-.02-.07-.04-.03-.02-.05-.03-.08-.05-.03-.02-.05-.03-.07-.05-.02-.02-.04-.04-.06-.06-.02-.02-.03-.05-.04-.09-.03-.1-.05-.2-.07-.31-.02-.1-.03-.2-.01-.29,0-.02,0-.04.01-.05,0-.01.01-.03.02-.04,0-.01.01-.03.02-.05s.02-.04.03-.06c0-.02.01-.05.02-.07s.03-.05.05-.07c0,0,.01-.02.03-.05.02-.03.04-.05.07-.08.03-.03.06-.05.09-.08.03-.02.05-.03.07-.03l.09-.04s.04,0,.06,0c.02,0,.04,0,.06-.01.04-.02.08-.03.12-.02l.13.02ZM18.15,6.17s-.08,0-.12.03c-.04.03-.09.06-.13.1-.04.04-.07.08-.1.12-.03.04-.04.07-.04.08l-.04.25v.22s0,.09.02.15c.02.07.06.14.11.21.04.06.09.11.15.15.06.04.11.07.16.08l.15.02s.1,0,.15-.02.11-.05.17-.08c.05-.04.1-.08.14-.13.04-.05.06-.11.07-.17,0-.01.01-.02.02-.03,0,0,0-.02.01-.03s0-.02,0-.03v-.28s0-.08,0-.11c0-.03-.02-.05-.04-.08-.02-.03-.04-.05-.06-.09-.02-.03-.05-.08-.07-.14-.01-.01-.03-.03-.05-.05-.02-.02-.05-.04-.07-.05-.03-.02-.05-.03-.08-.04-.03-.01-.05-.02-.08-.02h-.06s-.04-.01-.06-.02-.05-.01-.07-.02c-.03,0-.05-.02-.08-.03ZM18.54,6.45s.02,0,.03.01c0,0,.01.02.01.03,0,0,0,.02,0,.03,0,.01,0,.02,0,.03v.03s-.03.05-.05.06c-.02.02-.04.03-.06.02-.02,0-.04-.01-.05-.03-.02-.02-.03-.03-.06-.03-.03,0-.05,0-.07.02-.02.01-.04.03-.06.05-.02.02-.03.04-.05.06-.01.02-.02.04-.02.05v.04s-.01.07-.01.07c0,.01,0,.03,0,.06,0,.03,0,.06,0,.1,0,.03.01.06.03.09s.03.04.05.04c0,0,0,0,0,0,0,0,0,0,.01,0s.01,0,.02,0c.02,0,.05,0,.08,0s.06-.02.08-.03c0-.01.02-.02.04-.02s.03,0,.05,0c.01,0,.02,0,.02,0,0,0,.01,0,.02.01,0,0,0,.01,0,.02,0,.01-.01.02-.02.03-.01.02-.03.04-.05.05-.02.02-.04.04-.07.05s-.05.03-.07.04c-.02.01-.04.01-.06.01h-.04s-.03.01-.04.01c-.01,0-.02,0-.03,0-.01,0-.02,0-.02,0,0,0-.02,0-.03-.01-.01,0-.03-.02-.04-.03s-.03-.03-.04-.04c-.01-.01-.02-.02-.03-.03,0,0,0-.01-.02-.03s-.02-.04-.02-.06-.01-.05-.02-.07,0-.04,0-.05v-.04s0-.01,0-.02c0,0,0-.01,0-.02,0,0,0-.01,0-.02,0-.01,0-.02,0-.03,0,0,0-.02,0-.03,0-.01,0-.02,0-.03v-.04s0-.01,0-.03c0,0,0-.01,0-.02v-.05s.02-.03.02-.03c.01-.02.02-.03.03-.05,0-.01.02-.02.03-.03,0-.01.02-.02.02-.02,0-.02.02-.04.03-.05.02-.02.04-.03.06-.04s.05-.02.07-.03.05-.02.07-.03c.01,0,.02,0,.03,0,0,0,.02,0,.03,0,0,0,.02,0,.02,0,0,0,0,0,.01,0s0,0,.01,0c0,0,0,0,.01,0h.06s.06,0,.06,0Z"/>
    </g>
    <g>
      <path class="cls-1" d="M19.09,7.71v-.02s.03,0,.04-.02c.01,0,.02-.01.03-.02,0,0,.01,0,.03-.01.01,0,.03,0,.04-.01.01,0,.03-.01.04-.02.01,0,.02,0,.03,0,0,0,0,0,.02,0,.01,0,.02,0,.04,0,.01,0,.02,0,.03,0,.01,0,.02,0,.02,0,0,0,.02,0,.03,0,.02,0,.04,0,.05,0s.04,0,.05,0,.03,0,.03,0c0,0,.01,0,.03,0,.01,0,.03,0,.04,0,.01,0,.03,0,.04,0,.01,0,.02,0,.02,0,0,0,.02,0,.05,0,.02,0,.04,0,.04,0l.04-.02s.02-.01.03-.02.03-.01.04-.02c.01,0,.03-.01.04-.02.01,0,.02-.01.03-.01,0,0,.02,0,.03-.02.01,0,.02-.01.02-.02,0,0,0,0,.02-.03.01-.02.02-.03.03-.04,0,0,.01-.02.03-.04.01-.02.02-.03.02-.03,0,0,.01-.02.03-.05.01-.02.02-.04.02-.04,0,0,0-.02,0-.03,0-.02,0-.03,0-.04v-.03s0-.02-.02-.04c0-.02,0-.03,0-.03,0,0,0-.02-.02-.04s-.03-.04-.03-.05c0,0-.01-.02-.02-.03-.01-.01-.02-.02-.02-.02,0,0,0-.01-.03-.02-.02-.01-.03-.02-.04-.03,0,0-.02-.02-.04-.03-.02-.01-.03-.02-.03-.02,0,0-.03-.02-.05-.03s-.04-.02-.06-.03c0,0,0,0,0,0s0,0,0,0h0s0,0,0,0c0,0,.01,0,.03,0s.02,0,.03,0h.03s.03,0,.04,0c.02,0,.03,0,.04,0s.02,0,.02,0c0,0,.02,0,.04,0s.04,0,.05.01c0,0,.02,0,.04.02.02,0,.03.01.03.02,0,0,0,0,.02,0s.02.01.03.02.02.02.03.02.02.01.02.02c0,0,.01.01.03.02.01,0,.02.02.03.02,0,0,.02.02.04.03,0,0,0,0,.02.02,0,.01.02.02.02.03,0,.01.02.03.03.05s.02.04.02.04,0,.01.01.03,0,.03.01.04v.03s0,.02,0,.04c0,.02,0,.04-.01.05l-.07.1-.08.1s-.01,0-.03.02-.03.02-.04.03c-.06.04-.13.08-.2.1,0,0-.02,0-.03,0-.02,0-.03,0-.05,0-.02,0-.03,0-.04,0-.01,0-.02,0-.03,0,0,0-.02,0-.04,0-.02,0-.04,0-.06,0-.02,0-.04,0-.06,0-.02,0-.03,0-.04,0,0,0-.01,0-.02,0s-.03,0-.04,0h-.04s-.02,0-.02,0c0,0,0,0-.02,0-.01,0-.02,0-.02.01,0,0-.02,0-.03.02-.01,0-.02.02-.02.02,0,0,0,0,0,0h0s0,0,0,0c0,0,0,0,0,0l.05.07s0,0,.02.02c.01.01.03.02.04.04s.03.03.05.04c.02.01.03.02.04.03.01.01.03.02.06.04.02.02.05.04.07.06.02.02.05.04.07.05.02.01.03.02.03.03,0,0,.02,0,.03.02.02.01.04.02.05.04.02.01.04.02.06.03.02.01.03.02.03.02h0s0,.01,0,.01c-.04,0-.08.01-.12.02-.04,0-.08,0-.12,0,0,0-.01,0-.02,0-.01,0-.02,0-.02,0-.03,0-.05-.02-.08-.03-.03-.01-.05-.02-.08-.04,0,0-.02-.01-.04-.02-.01,0-.03-.02-.05-.03-.02,0-.03-.02-.04-.03-.01,0-.02-.01-.03-.02l-.11-.09-.11-.09s-.02-.02-.04-.03c-.02-.02-.04-.03-.05-.05-.02-.02-.04-.04-.05-.05-.02-.02-.03-.03-.04-.03v-.02Z"/>
      <path class="cls-1" d="M20.43,7.82s.01-.01.02-.02c.01,0,.03-.02.04-.03.01,0,.03-.02.04-.03.01-.01.02-.02.02-.02,0,0,.01,0,.03-.01.01,0,.02-.01.03-.02,0,0,.01,0,.03-.01.01,0,.03,0,.04-.01.01,0,.03-.01.04-.01s.02,0,.02,0,.01,0,.03,0c.01,0,.03,0,.04,0s.03,0,.04-.01c.01,0,.02,0,.03,0,0,0,.01,0,.03,0s.02,0,.03,0c.02,0,.04,0,.07,0,.03,0,.06,0,.09,0,.03,0,.05,0,.08,0,.02,0,.04,0,.04,0,0,0,.02,0,.04,0,.02,0,.03,0,.04,0,0,0,.02.01.04.02.02.01.04.02.05.03l.04.04.05.04s.01.01.02.02c0,.01.02.02.03.04s.02.02.02.03c0,0,.01.02.01.02,0,0,0,0,0,.02,0,.01,0,.02.01.04,0,.01,0,.03.01.04,0,.01,0,.02.01.03,0,0,0,.02,0,.03,0,.01,0,.03.01.04,0,.02,0,.03,0,.04,0,.01,0,.02,0,.03,0,0,0,.02,0,.04,0,.02,0,.04,0,.04,0,0,0,.02-.01.05,0,.03-.01.05-.01.07,0,0,0,.01,0,.02s0,.02,0,.02c-.01.02-.02.03-.03.04,0,.01-.01.02-.02.03s-.01.02-.02.03c0,0-.01.01-.02.03,0,.01-.02.02-.03.04s-.02.02-.02.04-.01.02-.01.02h-.01s-.01.03-.01.03c0,0-.02.02-.04.03-.02.01-.03.03-.04.03,0,0-.01,0-.03.01-.01,0-.02.01-.04.02-.01,0-.02.01-.03.02-.01,0-.02,0-.02.01,0,0-.02,0-.03,0-.02,0-.03,0-.03,0,0,0-.02,0-.04,0-.02,0-.03,0-.05,0s-.04,0-.05,0c-.02,0-.03,0-.03,0h0s0-.01,0-.01c0,0,0,0,.02-.02s.03-.02.04-.03c.01-.01.03-.02.04-.03.01-.01.02-.02.02-.02,0,0,0,0,.01,0,0,0,0,0,.01-.01,0,0,0,0,0,0,0,0,0,0,0,0h0s0-.02.01-.03c0-.01.01-.02.02-.03s.01-.02.02-.03c0,0,0-.02.01-.02,0,0,0-.02.02-.03s.02-.03.03-.04c.01-.02.02-.03.03-.04,0-.01.01-.02.01-.03,0,0,0-.01,0-.02,0-.01,0-.02,0-.02,0,0,0-.02,0-.04,0-.02,0-.03,0-.03,0,0,0-.02,0-.03s0-.03,0-.04,0-.03,0-.04c0-.01,0-.02,0-.03,0,0,0-.02,0-.03,0-.02,0-.03,0-.04,0,0,0-.02-.02-.04,0-.02-.01-.04-.01-.04,0,0,0-.01-.02-.03,0-.01-.01-.02-.02-.04,0-.01,0-.02-.02-.03,0-.01,0-.02-.01-.02,0,0,0,0-.02-.02-.01-.01-.03-.03-.05-.05s-.04-.04-.05-.06c-.02-.02-.04-.04-.05-.05h0s0-.01,0-.01c0,0-.01,0-.03,0-.01,0-.03,0-.03,0,0,0-.02,0-.04.01s-.04.01-.05.02c0,0-.01,0-.03.01-.01,0-.02.01-.03.02,0,0-.02.01-.04.02-.02.01-.03.02-.03.02l-.09.1-.09.1s0,.02-.02.04-.02.03-.02.04c0,0,0,.02-.01.04,0,.02-.01.04-.02.06,0,.02-.01.05-.02.07,0,.02-.01.04-.01.05,0,0,0,.02,0,.04,0,.02,0,.03,0,.03s0,.01,0,.03c0,.01,0,.03,0,.04s0,.03,0,.04c0,.01,0,.02,0,.02,0,0,0,0,0,.02,0,.01,0,.02.02.03s.01.02.02.04c0,.01.01.02.02.03,0,0,.01.02.02.04.01.02.02.03.02.03,0,0,0,.01.03.03s.03.03.04.03c0,0,.02.02.03.03.01.01.02.02.02.02,0,0,.01,0,.03,0,.02,0,.03,0,.05.01.02,0,.03,0,.05,0,.02,0,.03,0,.03,0,0,0,0,0,.01,0s0,0,.01,0c0,0,0,0,0,0,0,0,0,0-.01,0,0,0-.01,0-.02,0-.01,0-.02,0-.02,0,0,0-.01,0-.03,0-.01,0-.03,0-.04,0-.01,0-.03,0-.04,0s-.02,0-.03,0c0,0-.02,0-.04,0s-.04,0-.06,0c-.02,0-.04,0-.06,0-.02,0-.03,0-.04,0h-.04s-.02-.03-.04-.05c-.02-.02-.04-.03-.04-.04-.01-.01-.03-.03-.05-.05s-.03-.03-.03-.03c0,0-.02-.02-.03-.04-.02-.02-.03-.04-.03-.05,0,0,0,0,0-.02s0-.02,0-.02c0,0,0-.02,0-.04,0-.02,0-.03,0-.03,0,0,0-.02,0-.03,0-.01,0-.03,0-.04,0-.01,0-.03,0-.04,0-.01,0-.02,0-.03,0,0,0-.02,0-.04,0-.02,0-.03,0-.04,0,0,0-.02,0-.03,0-.01,0-.03.01-.04,0-.01,0-.03.01-.04s0-.02,0-.02c0,0,0-.01.02-.03.01-.02.02-.03.02-.04,0,0,0-.01.01-.02,0-.01.02-.02.02-.03,0-.01.01-.02.02-.03,0,0,0-.01.01-.02l.04-.04.04-.05Z"/>
      <path class="cls-1" d="M20.95,9.11l.02-.02s.02,0,.03-.01c.01,0,.02-.01.03-.01,0,0,.02,0,.03,0,.01,0,.03,0,.04,0,.02,0,.03,0,.04,0,.02,0,.02,0,.03,0,0,0,0,0,.02,0,.01,0,.02,0,.04,0,.01,0,.02,0,.03,0,.01,0,.02,0,.02,0,0,0,.01,0,.03,0,.02,0,.04,0,.05.01.02,0,.04,0,.05.01s.03,0,.03,0h.03s.02,0,.04.01c.01,0,.03,0,.04,0,.01,0,.02,0,.02,0,0,0,.02,0,.05,0,.02,0,.04,0,.04,0h.04s.02-.02.03-.03c.02,0,.03-.01.05-.02.01,0,.03-.01.04-.02.01,0,.02,0,.03,0,0,0,.02,0,.03-.01.01,0,.02-.01.02-.01,0,0,0,0,.03-.02.02-.01.03-.02.04-.03,0,0,.02-.02.03-.03.02-.02.02-.02.02-.02,0,0,.02-.02.03-.04.02-.02.03-.03.03-.04,0,0,0-.01,0-.03,0-.02,0-.03,0-.04v-.03s0-.02,0-.04,0-.03,0-.04c0,0,0-.02-.02-.04,0-.03-.02-.04-.02-.06,0,0,0-.02-.02-.03s-.01-.02-.01-.02c0,0,0-.01-.02-.03s-.03-.03-.03-.04-.02-.02-.04-.04-.03-.03-.03-.03c0,0-.02-.02-.05-.04-.02-.02-.04-.03-.05-.04,0,0,0,0,0,0,0,0,0,0,0,0h0s0,0,0,0c0,0,.01,0,.03,0,.01,0,.02,0,.03,0h.03s.03,0,.04,0h.04s.02,0,.02.01c0,0,.02,0,.04.01.02,0,.04.02.04.02,0,0,.02.01.04.02.02.01.03.02.03.02,0,0,0,0,.01.01,0,0,.02.02.03.02s.02.02.03.03c0,0,.02.02.02.02,0,0,.01.01.02.02,0,0,.02.02.03.03,0,0,.02.02.03.04,0,0,0,0,.01.02,0,.01.01.03.02.04,0,.01.01.03.02.06,0,.03.02.04.02.04,0,0,0,.01,0,.03,0,.02,0,.03,0,.04v.03s0,.02-.01.04-.01.04-.02.04l-.09.08-.09.08s-.01,0-.03.02-.03.02-.04.02c-.07.03-.14.06-.22.07,0,0-.02,0-.03,0-.02,0-.03,0-.05,0-.02,0-.03,0-.05,0h-.03s-.02,0-.04,0c-.02,0-.04,0-.06,0-.02,0-.04,0-.06,0-.02,0-.03,0-.04,0,0,0-.01,0-.02,0h-.04s-.03-.01-.04-.01c-.01,0-.02,0-.02,0s-.01,0-.02,0c-.01,0-.02,0-.02,0,0,0-.02,0-.03.01-.01,0-.02.01-.03.02,0,0,0,0,0,0h0s0,0,0,0c0,0,0,0,0,0l.04.07s0,0,.02.02c.01.01.02.03.04.04.01.01.03.03.04.05.01.02.03.03.04.04.01.01.03.03.05.05.02.02.04.04.06.07.02.02.04.04.06.06.02.02.03.03.03.03,0,0,.01.01.03.03.02.01.03.03.05.04.02.02.03.03.05.04.02.01.03.02.03.03h0s0,.01,0,.01c-.04,0-.08,0-.12,0-.04,0-.08-.01-.12-.02,0,0-.01,0-.02,0-.01,0-.02,0-.02,0-.03-.01-.05-.03-.07-.04-.02-.02-.05-.03-.07-.05,0,0-.02-.01-.03-.03s-.03-.02-.04-.04c-.01-.01-.03-.02-.04-.03-.01-.01-.02-.02-.02-.02l-.1-.1-.1-.1s-.02-.02-.03-.04c-.01-.02-.03-.04-.05-.06-.02-.02-.03-.04-.05-.06-.01-.02-.03-.03-.03-.04h.01Z"/>
      <path class="cls-1" d="M21.46,10.33s0,.02.02.05.03.04.03.04c0,0,0,0,.03.01.02,0,.03.01.04.02.01,0,.03.01.05.02.02,0,.04.01.04.01.01,0,.03,0,.06.01.03,0,.04,0,.05.01,0,0,0,0,.02,0s.02,0,.03,0c0,0,.02,0,.03,0,0,0,.02,0,.02,0,0,0,.02,0,.04,0,.02,0,.02,0,.03,0l.33-.21s0,0,.02-.02.02-.02.02-.03c0,0,.02-.02.03-.04.01-.02.02-.03.02-.04,0,0,0-.01,0-.03s0-.03,0-.04c0-.01,0-.03,0-.04,0-.01,0-.02,0-.03,0,0,0-.02,0-.04,0-.02,0-.04,0-.05,0,0,0-.01,0-.02,0,0,0-.02,0-.03,0-.01,0-.02,0-.03,0-.01,0-.02,0-.02v-.02s-.01,0-.02-.02c0-.01,0-.02-.02-.04,0-.01-.01-.02-.01-.04s0-.02,0-.02l-.02-.03v-.02s-.02,0-.03-.01c0,0-.02-.01-.03-.02,0,0-.02-.01-.03-.02,0,0-.01-.01-.02-.01h0s0-.02,0-.02c.01,0,.03-.02.06-.03s.06-.03.1-.05c.03-.02.07-.04.1-.05.03-.02.05-.03.06-.04l.1-.07.1-.06s0-.02,0-.03c0,0,0,0,0-.02,0,0,0-.01,0-.02h.01s.23.06.23.06c0,0,0,0,.02.02,0,0,.02.02.03.03.01.01.02.03.03.04s.02.02.02.03c.01.02.04.05.07.1s.07.1.1.16c.04.06.07.11.1.16.03.05.05.09.07.11,0,0,.01,0,.02.02.01.01.02.02.03.02h0s0,.02,0,.02c0,0-.02,0-.04,0-.02,0-.04,0-.06-.01-.02,0-.04,0-.06-.01-.02,0-.03,0-.04-.01,0,0-.01,0-.03-.01-.01,0-.02-.01-.03-.02-.01,0-.02-.01-.03-.02-.01,0-.02-.01-.02-.01,0,0-.01-.01-.02-.03s-.02-.03-.04-.05c-.01-.02-.03-.04-.04-.06-.01-.02-.03-.03-.03-.04,0,0-.01-.02-.03-.04-.01-.02-.02-.04-.04-.05-.01-.02-.02-.04-.03-.06-.01-.02-.02-.03-.02-.04,0,0-.02,0-.03,0,0,0-.01,0-.02,0-.01,0-.02,0-.03.01-.01,0-.02,0-.04.02-.01,0-.02,0-.03.01-.01,0-.03.02-.06.03s-.05.02-.07.04c-.02.01-.05.03-.08.05v.03s.07.12.07.12c0,0,0,.01.01.03,0,.01.01.03.02.05,0,.02.01.03.02.05,0,.01.01.02.01.03,0,0,0,.01,0,.03,0,.02,0,.03,0,.03,0,.01,0,.02,0,.04,0,.02,0,.04,0,.06,0,.02,0,.04,0,.05,0,.01,0,.02,0,.03,0,0,0,.02,0,.04s0,.04-.01.05c0,0,0,.01-.01.03s-.01.03-.02.04c0,0,0,.01-.01.02,0,0-.01.01-.01.02,0,0-.01,0-.02.02s-.02.02-.03.03l-.03.03s-.02.01-.02.02l-.05.03-.05.03s-.01,0-.03.01-.03.01-.04.02c-.02,0-.03.01-.05.02-.01,0-.02.01-.03.02,0,0-.02,0-.04.02-.02,0-.03,0-.04,0,0,0-.02,0-.04,0-.02,0-.04,0-.05,0-.02,0-.04,0-.05,0-.02,0-.03,0-.04,0-.02,0-.04,0-.08-.01-.04,0-.08-.02-.12-.03s-.08-.02-.12-.03-.06-.02-.08-.02c0,0-.01,0-.04-.02s-.05-.02-.08-.03c-.03-.01-.06-.02-.09-.04-.03-.01-.05-.02-.07-.03,0,0-.01,0-.02,0,0,0-.01-.01-.02-.01,0,0-.02-.02-.03-.04-.02-.02-.03-.03-.03-.04l.02-.02.21.06ZM21.32,10.3s-.02-.01-.03,0-.01.02,0,.03c0,0,.01,0,.02,0s.02-.02.01-.02Z"/>
    </g>
  </g>
</svg>