<?xml version="1.0" encoding="UTF-8"?>
<svg id="Layer_2" data-name="Layer 2" xmlns="http://www.w3.org/2000/svg" viewBox="0 0 125.22 127.32">
  <defs>
    <style>
      .cls-1 {
        fill: #000;
        stroke-width: 0px;
      }
    </style>
  </defs>
  <g id="Layer_1-2" data-name="Layer 1">
    <g>
      <path class="cls-1" d="M116.79,118.85c-.71-.32-1.32-.76-1.81-1.31s-.89-1.18-1.16-1.89c-.27-.71-.41-1.46-.41-2.25s.14-1.53.41-2.25c.27-.72.66-1.35,1.16-1.89s1.1-.98,1.81-1.31c.71-.32,1.51-.49,2.39-.49s1.67.16,2.38.49c.71.33,1.32.76,1.82,1.31.5.55.89,1.18,1.16,1.89s.4,1.46.4,2.25-.13,1.53-.4,2.25c-.27.72-.65,1.35-1.16,1.89-.5.55-1.11.98-1.82,1.31s-1.5.49-2.38.49-1.68-.16-2.39-.49ZM121,117.42c.56-.23,1.03-.54,1.44-.93.4-.39.72-.85.94-1.38s.34-1.1.34-1.71-.11-1.16-.34-1.69-.54-.99-.94-1.38c-.4-.39-.88-.7-1.44-.93-.56-.23-1.16-.35-1.82-.35s-1.27.12-1.82.35c-.56.23-1.04.54-1.44.93-.4.39-.72.85-.94,1.38s-.34,1.09-.34,1.69.11,1.18.34,1.71.54.99.94,1.38c.4.39.88.7,1.44.93.56.23,1.16.34,1.82.34s1.27-.11,1.82-.34ZM121.17,110.73c.3.17.56.38.77.63.21.25.37.54.48.85.11.31.16.64.16.98,0,.5-.09.96-.26,1.37-.17.41-.42.75-.73,1.04-.31.29-.67.51-1.09.67-.42.16-.87.24-1.35.24s-.95-.07-1.38-.22-.79-.37-1.1-.65c-.31-.28-.55-.63-.73-1.04-.17-.41-.26-.87-.26-1.38,0-.36.05-.7.16-1.01.1-.31.25-.59.46-.84.2-.25.45-.45.75-.62.3-.16.64-.27,1.04-.32v1.21c-.36.08-.64.27-.85.56-.21.29-.31.63-.31,1.04,0,.59.2,1.04.61,1.34.41.31.93.46,1.58.46.3,0,.58-.04.86-.13.27-.09.51-.21.71-.37.2-.16.36-.35.48-.58s.18-.48.18-.76c0-.43-.11-.79-.33-1.07-.22-.28-.51-.44-.88-.49v-1.25c.38.06.72.18,1.03.35Z"/>
      <g>
        <path class="cls-1" d="M116.03,100.33c-.31.26-.47.64-.47,1.13,0,.67.25,1.12.75,1.37.29.14.75.22,1.37.25v2.14c-.95-.04-1.72-.21-2.31-.52-1.12-.59-1.67-1.63-1.67-3.12,0-1.18.33-2.12.98-2.82.66-.7,1.52-1.05,2.6-1.05.83,0,1.56.25,2.21.74.43.32.9.86,1.43,1.6l.62.88c.39.55.67.93.85,1.13s.38.37.61.51v-4.88h1.94v7.66c-.8-.02-1.54-.19-2.2-.52-.75-.31-1.54-1.05-2.37-2.22-.72-1.01-1.24-1.67-1.56-1.97-.49-.46-1.02-.69-1.6-.69-.47,0-.87.13-1.18.39Z"/>
        <path class="cls-1" d="M125.22,92.69c0,1.42-.5,2.42-1.5,3-1,.57-2.42.86-4.27.86s-3.27-.29-4.27-.86c-1-.57-1.5-1.57-1.5-3s.5-2.42,1.5-3c1-.57,2.43-.86,4.27-.86s3.27.29,4.27.86c1,.57,1.5,1.57,1.5,3ZM122.4,91.4c-.68-.2-1.66-.3-2.95-.3s-2.35.1-2.99.3c-.65.2-.97.63-.97,1.28s.32,1.09.97,1.3c.65.21,1.65.32,2.99.32s2.27-.1,2.95-.32,1.02-.64,1.02-1.3-.34-1.08-1.03-1.29Z"/>
        <path class="cls-1" d="M116.03,82.76c-.31.26-.47.64-.47,1.13,0,.67.25,1.12.75,1.37.29.14.75.22,1.37.25v2.14c-.95-.04-1.72-.21-2.31-.52-1.12-.59-1.67-1.63-1.67-3.12,0-1.18.33-2.12.98-2.82.66-.7,1.52-1.05,2.6-1.05.83,0,1.56.25,2.21.74.43.32.9.86,1.43,1.6l.62.88c.39.55.67.93.85,1.13s.38.37.61.51v-4.88h1.94v7.66c-.8-.02-1.54-.19-2.2-.52-.75-.31-1.54-1.05-2.37-2.22-.72-1.01-1.24-1.67-1.56-1.97-.49-.46-1.02-.69-1.6-.69-.47,0-.87.13-1.18.39Z"/>
        <path class="cls-1" d="M120.81,71.2h1.72v1.27h2.41v2.15h-2.41v4.43h-1.92l-6.79-4.11v-2.47h6.99v-1.27ZM120.81,77.42v-2.8h-4.83l4.83,2.8Z"/>
      </g>
      <g>
        <path class="cls-1" d="M39.74,46.44c0-.06,0-.11,0-.17-.04.06-.03.12,0,.17Z"/>
        <path class="cls-1" d="M18.79,88.23c-.23-.05-.46-.11-.69-.28.2.54-.34.28-.53.48.11.1.29.04.35.19.14.38.52.31.81.32.33,0,.51-.32.55-.51.06-.28-.3-.16-.49-.2Z"/>
        <path class="cls-1" d="M12.79,63.97c-.1-.05-.35.02-.4.22-.05.21.03.32.27.31.13,0,.12.16.04.22-.23.18-.38.58-.74.48-.35-.1-.66-.24-.86.18-.1.21.07.34.19.45.42.4.63-.08.92-.22.42-.21.59-.79,1.24-.89.07-.29.17-.58.32-.86-.3.15-.61.29-.98.1Z"/>
        <path class="cls-1" d="M98.46,56.76c-2.21.57-3.74-1.46-4.93-2.97-1.95-3.64-3.7-7.83-4.72-11.93-.55-1.93-.86-4.14-1.7-5.92.08-1.53-1.05-2.97-1.97-4.08-.39-.69-2.39-1.79-2.01-2.41,3.17-1.73,6.62-3.97,8.83-6.71.67-.52.43-1.59,1.22-2.04.56-2.59,1.48-5.33.92-7.99h0c-.09-.82-.22-2.07-.63-2.72-.72-.58-.73-1.51-1.2-2.17-1.8-2.1-3.65-3.92-6.26-4.93-.11-.08-.28-.28-.43-.02-.81-.17-1.57-.67-2.45-.5-.32.05-.77.05-.91-.2-.23-.4-.53-.31-.84-.32-1.87-.16-3.62.5-5.49.09-.43.1-.91.56-1.24-.16-.65.1-.88-.05-1.03-.68-.15-.42-.97-.71-1.39-.57-.53.19-.75.52-.58,1.11.03,1.45-4.84.99-6.12,1.21l-5.2.31c-1.62-.42-3.37.38-5.06,0h.01c-.75-.07-1.49-.13-2.11-.58-.35.1-.5-.13-.69-.37-.36-.47-.57-1.01-.79-1.55-1.21-1.54-2.43-.05-1.91,1.34,2.07,6.45,4.27,9.31,11.49,8.2,1.11-.34,2.47-.74,3.59-.68.73.44,1.4.11,2.11.02.27-.04.52-.24.81-.13.21.13.52-.02.64-.14,0,0,.01.01,0,.02-2.69,2.11-5.89,4.13-6.71,7.77-.49,2.04-1.12,4.06-.79,6.19-.25,1.95-3.83,1.83-5.14,3.28-1.36.96-2.61,2.3-3.45,3.77-.96,2.5,5.56-.5,7.18,2.34,2.44,4.58,2.88,10.32,1.25,15.25-.39,2.73-1.13,5.51-3.74,6.94-.41.21-.43-.15-.55-.37-1.23-.11-.67-.44-.26-1.14,1.01-1.38-1.18-.21.77-2.54,1.06-1-.73-1.61-.26-2.27.56-.69.06-1-.63-1.14.81-1.07-.27-1.67-.26-2.71-.68-.84-2.44.26-3.48-.16-.36.05-.73.17-1.07-.09-.12-.21-.1-.52-.43-.56,1.91.42-.25-1.82,2.25-3.11,1.03-.95-.79-.59-.4-1.67-.23-.79.87-2.36-.07-2.66-.96.16-1.9-.34-2.85-.02-.12.04-.25,0-.22-.15-.09-.64.56-3.13-.75-2.19-.04.02-.04.05,0,.06.08.03-.11.04-.07-.03.62-.35.57-.86.4-1.42-.86-.36-.56-3.23-1.73-2.68-.11.07-.19.08-.26-.05-.13-.53-.74-.24-.98-.58-.57-.55-.12-1.32.12-1.82-.51-1.02-1.63-.9-1.87.22-.67-.72-.1-2.96-1.49-2.39-1.85.55-2.93-5.22-4.52-2.01-.07.93-.87,1.12-1.38,1.72-.5.44-1.33-.2-1.73.53-.08,1.54.2,1.41-1.43,1.33-.11-.25.13-.59-.15-.78-.79-.28-1.41-1.92-2.27-1.39-.53.36-.97,1.82-1.44.67-.21-.4-.33-.87-.96-.77-.66.11-1.26-.5-1.97-.42-.12-.87-.95-.86-1.47-1.27-.1-.58-2-1.46-1.99-.54-.06.06-.11.19-.08.28-.12-.15-.37-.47-.5-.52-1.01-.71-.47,1.32-1.63.27-3.12-2.34-.95.69-2.44.18-.54-.1-1.28-1.17-1.67-.38-.15.35-.31.1-.46.05-.65-.21-1.3-.47-1.99-.14-.14.55-.67-.03-.95-.25-.38-.58-1.32-.22-.95.45-.4,1.36-3.64-1.83-4.16-.09-.48.99,1.4,4,.4,4.04-.44-.05-.61.22-.59.63-.1.48.42.59.57.93.16,1.39-1.97.35-1.83,1.5.08.73,1.16.95.79,1.75-.06.13-.02.33.14.41.57.3.12.39-.11.51-1.66.86.69,2.22.59,3.4-1.1.78-1.18,1.63.26,2,.3.45-.18.36-.33.42-.97.35-.79,1.42.11,1.73,1.15.17.45.6-.18.92-.25,0-.57.01-.47.35-.04.92,1.41.53,1.91,1.2-.79.18-.78.19-1.26,1.03-.24.71-.89.36-1.48.34-1.24-.17-2.42.36-3.65.27-.71-.25-1.04.51-.41.9.7.67-1.12.43-.66,1.58.11.52-.7.65-.83,1.12-.13,1.16-2.11,1.01-1.75,2.2.48.93,1.53,1.3,2.35,1.59.05.25-.21.37-.41.44-.46.16-.37.53-.35.87-.05.56,1.19.04.65.61-.28.3-.2,1.15.3,1.01.44-.11,3.56-.35,2.88.29-.35.2-.41.57-.37.89.03.34.42.09.67.29-.65.44-2.48,1.38-.87,1.92.41.13.92.05,1.22.44.9,1,1.97-.8,3.03.08.15.03.35.12.18.35-.44-.02-.6.3-.6.62.15.82,1.39.59,1.85,1.21.07.06.24.02.17.25-.22.77.17,1.37.72,1.84.6.45.27.82-.2,1.18-4.66,3.24-2.16,10.19,3.24,10.29.03.48.49.97,0,1.44-.13.13-.13.27-.13.42.15,1.84-.48,1.58-2.07,2.86-1.97,1.69-2.08,4.98-.3,6.46.17.16.36.29.35.56-.86,1.51.19,3.13.86,4.5-2.81.22-5.56,2.64-5.22,5.61.05.39.01.78-.43.95-.72.29-1.68,1.61-1.92,2.15-.57.92-1.55,6.65,3.96,8.28.24.11.24.14.25.35.21,1.1.65,2.5,2.91,3.36-1.38.55-1.66.67-3.02,1.6-1.28,1.38-2.14,2.87-1.76,5.4,1.96,5.35,6.95,2.03,6.44,3.96-.39,6.86,10.44,8.01,11.37,1.18-.29-.29.21-.63-.16-.95,4.8.8,8.41-4.05,5.98-8.37-.06-.19-.24-.4-.02-.52.95-.34.85-2.2,1.73-2.17,7.99,2.98,11.07-11,.74-11.34.36-.66,1.62-.78,2.01-1.57,1.13-.94.91-3.01,2.68-3.24,1.55.18,3.67.32,4.78-.94.14-.26.35-.36.71-.2,1.15.55,2.26-.05,3.15-.62.62-.54,1.12-1.23,1.52-1.94.73-1.98,3.15-2.5,4.37-4.25.73,0,1.05,1.62,2.06,1.54.78-.17,1.66.39,2.33.1.25-.4.77-.1,1.05-.41,4.82-3.74.97-6.25,2.38-6.81,3.41-1.04,5.76-4.44,3.5-7.63-.16-1.29-2.59-1.24-1.84-2.78.81-2.78-2.24-5.32-4.93-4.93-1.48-.17-1.54,1.79-2.95,1.51-.76-.25-1.59-.53-2.43-.18-.11.05-.18.05-.24-.1-.24-.92-1.48-1.36-1.6-2.18.4-.66.9-1.96.08-2.36,1.2.56,3.09-.17,4.42.3,1.69.23,3.18,1.17,4.95,1.3,3.55,1.68,7.31.26,10.25-2.05,1.67-1.92,4.7-3.3,5.81-5.36-.67-.91-1.74.27-2.47.48-4.34,2.38-9.6-.5-14.01-.9,8.28-6.51,9.11-11.11,8.54-21.43,1.11-8.06-2.72-17.55,2.11-24.73,1.09-.35.38-.92.59-1.59.33-.22,1.04-.08.85.42.26,7.48.17,14.91.1,22.48-.08.71-.23.9-.92.84-.61.09-.88,1.04-.65,1.55.24.87,1.39-.25,1.43.49,0,2.66.33,5.32.13,7.98.46,4.14.37,8.33.1,12.51-.1,1.08,1.23.77,1.93.88.37.01.35-.48.62-.62.16-1.06.04-2.12-.05-3.18v.02c-.16-2.98.31-5.95.13-8.94.29-1.19-.06-2.52.15-3.76-.21-.51-.67-5.01.16-4.1,1.83,1.87,3.54,4,4.26,6.58,1.58,4.32,2.47,8.96,4.15,13.25,1.54,1.21,1.43,3.9,3,5.04.19-.18.03-.36,0-.54.4,1.13,1.55,1.78,2.39,2.55,1.29,1.1,4.37,1.07,5.74-.24,1.49-1.64,3.68-1.83,5.54-2.82v-.28l-1.2-1.73-.28-.03ZM40.6,36.34c.31.44.25.88.15,1.31-.02-.42-.35-.81-.15-1.31ZM40.4,34.43c.02.42.03.69.05.96-.16-.27-.43-.53-.05-.96ZM40.67,41.44s0-.03,0-.05c0,0,0-.02,0-.02-.23-1.04-.09-2.07.01-3.1.23.93.52,2.34-.01,3.1,0,.01,0,.02,0,.03h0s0,.03,0,.04c.33,1.67-.3,3.46-.91,5.03-.01-.01-.01-.03-.02-.04.01.38-.07.78-.38,1.05,0,.01,0,.02,0,.03,0,0,0,.01-.01.02.11,1.13-.77.6,0,0,0-.01,0-.01,0-.03,0,0,0-.02.02-.03-.05-.46.16-.84.37-1.22.41-1.56.69-3.26.94-4.82ZM43.95,52.04c-.14.34-2.32.97-3.13.86,1.07-.43,2.13-.54,3.13-.86ZM38.93,60.11c.1-.36.3-.64.63-.88.06.42-.14,1.14-.63.88ZM38.84,69.57c-.4.28-1.12-.05-1.22-.56-.07-.35.04-.76-.49-.93,1.27.13,3.02-.42,1.71,1.49ZM38.71,53.22c.5-.08,1.01-.16,1.56-.25-.52.35-.77.4-1.56.25ZM36.31,35.96c1.07,2.49,1.44,5.29,3.3,7.43-1.2-.69-3.68-6.22-3.3-7.43ZM37.06,47.39c.46.44.77.94.88,1.49l-3.32-3.79c.82.76,1.63,1.52,2.44,2.3ZM34.52,60.67c.5.48-.23.89-.68.84.15-.29.55-.36.52-.76,0-.02.1-.09.15-.08ZM34.13,60.43c.15.34-.68.41-.95.63-.56-.31.66-.65.95-.63ZM34.07,59.7c.6.22-.24.47-.53.58-.19-.3.22-.63.53-.58ZM33.42,54.75c.02-.91-.91-.18-1.01-1.09-.06-.33.16-.65.43-.83.26-.18.4.11.56.29.22.25.58.23.9.28-.26.49,0,1.26-.88,1.36ZM33.15,37.68c.31.88,1.13,1.64.57,2.91-.51-1.01-.71-1.92-.57-2.91ZM31.13,48.21c.74.95,1.48,1.9,2.22,2.85-.05.04-.11.08-.16.13-.79-.91-1.53-1.85-2.22-2.85.05-.04.1-.09.15-.13ZM31.12,57.37c-.41-.02-.14-.62-.54-.7-.22-.06-.61.25-.66-.2-.05-.42-.35-.97.39-1.17.32.55,1.84,1.51.82,2.06ZM21.58,34.36c-.25-.63-.76-.94-1.16-1.42.35.07.55.32.73.54,1.63,1.99,3.27,3.9,4.78,6.06.44.62.76,1.33,1.12,2.01.23.45.4.28.57-.11.43-1.01.35-2.01.29-3.01,0-.13-.04-.26-.06-.45.27.08.25.3.26.5.08,1.12.14,2.23-.61,3.29-.17.24-.07.45.01.66.1.24.22.49.36.74.28.19.4.52.54.83-.02-.01-.04-.03-.06-.04.62.92,1.37,1.82,1.88,2.59,0,.2.01.33.04.42l.05.08c.06.07.17.07.34.07l-.12.32-.23-.38s-.04-.05-.05-.08l-.41-.69c.11-.19-.08-.27-.17-.36-1.18-1.29-2.17-2.75-2.93-4.41-.08-.17-.12-.51-.32-.46-.03,0-.05.02-.08.03.01.02.03.03.04.06-.02-.02-.04-.03-.06-.05-.23.09-.48.29-.52.55-.05.28-.13.23-.27.21-.21-.04-.41-.09-.62-.13-1.98-.76-2.97-1.16-4.48-1.39.79.07,1.57.2,2.3.46.81.28,1.63.52,2.44.81.51.18.7-.33,1-.61-.56-.41-1.12-.82-1.68-1.23.69.23,1.28.6,1.73,1.18.23-.25-.02-.44-.1-.62-.43-.9-.98-1.71-1.58-2.47-.75-.96-2.11-2.44-2.32-2.8-.37-.62-.66-.55-1.15-.47-1.73-.17-3.08-.53-4.07-.62,1.52.04,2.93.63,4.55.42ZM26.57,66.3c-.36.16-.55.74-.86,1.1-.14.16-.23.55-.41.43-.22-.14-.68-.21-.48-.79-.88.59-.56,1.37-.68,2.2-.55-1.37-.26-2.46.4-3.49.33-.52.85-.87,1.35-1.23.43-.31.8-.1,1.2-.06.03,0,.06.04.09.06-.43.5.32,1.37-.61,1.79ZM25.35,86.32c-.22.12-.5.14-.7.32,0,.21.38.09.31.41-.1.45-.1.9.09,1.35.07.16-.15.24-.23.25-.7.09-.87.67-1.09,1.19-.11.27-.26.45-.53.57-.72.31-.8.68-.29,1.3.11.13.21.27.32.4-1.17-.76-1.54-1.85-1.31-3.19.22-1.29.95-2.13,2.18-2.56-.91.44-1.59,1.07-1.78,2.12.54-1.4,1.65-1.98,3.04-2.15ZM24.35,100.69c-.41-.01-.78-.29-1.18-.07-.15.08-.38-.02-.39.28-.01.32.33.06.37.27-.17.17-.42-.02-.6.11.03.2.29.04.31.26-.39-.11-.73.27-1.14.1-.1-.04-.24.1-.21.23.05.22.28.08.42.17-.25,0-.49,0-.7.13-.25.17-.45.38-.2.68.49.58.14,1.02-.21,1.47-.01.02-.03.03-.05.05-.06-.73-.66-.11-.94-.37-.22-.2-.32.07-.37.25-.11-.44,0-.87.05-1.34-.38.15-.18.47-.27.71-.05-.05-.09-.08-.09-.11-.04-.23.22-.64-.23-.63-.26,0-.22.4-.24.63-.03.42-.03.84.08,1.25-.77-1.44-.14-3.51,1.3-4.57,1.68-1.24,4.19-.69,5.08.57-.49-.29-.98-.58-1.61-.52.21.28.62.12.8.44ZM22.02,108.57c-1.23-1.74-.03-1.03,1.08-1.58-.78,1.38,1.24.86-1.08,1.58ZM17.1,95.52c-.1-.05-.11.26-.12.42-.03.31.08.61-.13.93-.17.26-.25.37-.57,0,.15.69.45,1.16.69,1.75-1.3-1.29-1.49-2.9-.56-4.34.95-1.46,2.57-2.03,4.13-1.44.1.04.2.08.29.15.12.08.26.2.2.35-.08.2-.25.05-.37.03-.81-.12-1.6-.15-2.3.43.45.4.93.08,1.47.28-.56.13-1.01.26-1.38.55-.04.03-.16.04-.2,0-.7-.55-.54.24-.76.46-.13.13.23.7-.38.43ZM23.87,59.23c-.29.29-.91.54-.1.86.38.15.04.62.17.95.1.27-1.12.42-.22,1.01-.85.18.18.47,0,.64-1.17.34-2.34-.52-3.49.09.44-2.05,1.79-3.43,3.63-3.56ZM22.07,47.25c.33-.04.88.29.62.55-.35-.03-.37-.42-.62-.55ZM24.7,54.8c.08.31-.39.26-.57.43-.26.24-.16-.13-.26-.17-.98-.82-1.11-1.34.25-1.74-.21,1.14.82-.15.58,1.48ZM22.34,81.62c-1.01-1.03-1.16-2.14-.96-3.32.1-.6.44-1.11.76-1.62.27-.44.69-.39,1.07-.51.03,0,.07.01.11.02-.2.62.81,1.12.12,1.85-.26.28-.22.88-.37,1.32-.07.2,0,.58-.21.54-.25-.05-.69.06-.73-.54-.58.87,0,1.45.21,2.25ZM22.48,64.62c-.37-.22-.74-.44-1.21-.39.16.21.47.09.61.33-.31-.01-.59-.22-.89-.05-.11.06-.28-.02-.29.22,0,.24.25.04.28.2-.13.13-.32-.02-.45.08.02.15.22.03.24.2-.3-.08-.55.2-.86.07-.07-.03-.18.07-.16.18.04.17.21.06.32.13-.19,0-.37,0-.53.1-.19.13-.34.29-.15.52.37.44.11.77-.16,1.11-.01.01-.02.03-.04.04-.04-.55-.5-.09-.71-.28-.16-.15-.24.05-.28.19-.08-.33,0-.66.04-1.01-.29.12-.14.36-.2.54-.04-.04-.07-.06-.07-.08-.03-.18.17-.48-.18-.48-.19,0-.16.3-.18.48-.03.32-.02.63.06.94-.58-1.09-.11-2.65.98-3.46,1.27-.94,3.17-.52,3.84.43ZM19.96,88.31c.06.31-.26.29-.31.47-.21-.09-.05-.26-.16-.37-.18.72-.56.9-1.45.73.19.12.4.22.49.49-.16-.07-.3-.17-.43-.17-.2,0-.07.22-.17.31-1.22-1.22-.75-3.39.87-4.1.11-.05.2-.08.32,0,.26.16.52.31.88.53-.9-.05-.43.36-.39.67.27-.19.49-.39.97-.48-1.01.53-.75,1.25-.61,1.93ZM19.87,83.83c-.16.08-.29-.07-.39-.17-.11-.11.05-.18.11-.24.16-.17.42-.27.33-.58-.04-.13.08-.36-.17-.36-.2,0-.37.09-.34.36.01.1,0,.21,0,.34-.2-.13,0-.36-.22-.46-.05.41-.09.79.24,1.12.16.16.04.27.01.25-.18-.18-.21.42-.43.06-.24-.4-.33-.83-.49-1.25,0,.99.58,1.71,1.21,2.52-1.17-.78-1.62-1.78-1.46-3.06.14-1.15.99-2.08,2.15-2.39.21-.06.5-.21.62.04.16.34.39.71.19,1.12-.08.17-.22.31-.32.47-.07.11-.11.21,0,.33.53.55.55.85,0,1.29-.31.25-.67.43-1.02.61ZM20.05,67.73c.1.03.26-.01.28.13.01.08-.05.2-.12.24-.18.09-.16-.11-.23-.18-.16-.16-.35-.16-.54-.03.1.53.59.5.99.65-.61.46.1.41.21.61-.4.05-.75-.18-1.13-.19-.33-.01-.8,0-.87.25-.09.31-.3.73.09,1.09.15.14.44.45,0,.67-.04.02-.08.1-.08.14,0,.11.37.22.04.33-.2.07-.3-.16-.35-.37-.31.38,0,.52.18.75-.23-.08-.45-.2-.68-.23-.56-.07-.15.32-.2.49-.31,0-.68.12-.7-.4,0-.1-.14-.14-.24-.06-.03.02-.07.05-.08.09-.1.3-.67.38-.6.42.49.36.2,1.06.69,1.39.15.1.35.19.43.4-1.39-.62-2.01-2.15-1.51-3.69.57-1.74,2.7-2.96,4.43-2.51ZM15.55,75.08c.15-.35.46-.38.75-.49.12-.04.26-.01.23.13-.11.57.37.62.7.78.3.15.43.29.34.66-.05.24-.05.56.12.78.18.24.04.42-.12.47-.19.07-.37-.22-.34-.31.15-.51-.24-.49-.48-.45-.32.05-.55-.12-.76-.25-.69-.44-.68-.46-.78.29-.06-.58.12-1.1.34-1.62ZM22.32,37.32c-.11,0-.21,0-.32,0-.24,0-.47.02-.66.08-.51-.08-.89-.13-1.4-.28-.97-.32-1.7-.53-2.49-.16-.06,0-.12-.05-.23-.09.7-.1,1.28-.18,1.49-.13,1.09.26,2.14.56,3.29.58.1,0,.21,0,.32,0,.41-.01.83-.06,1.27-.17-.38.18-.84.17-1.27.17ZM24.03,39.36c-.37.09-.45-.18-.54-.42.28,0,.41.18.54.42ZM16.4,47.44c.27.38.43.78.44,1.18l-1.88-3.15c.49.65.97,1.31,1.45,1.97ZM19.61,51.6s.05.02.07.04c0,.01.02.02.03.03.58.1.92.56,1.34.89-.52-.19-1.03-.4-1.34-.89-.02,0-.03-.02-.04-.02-.02-.02-.05-.03-.07-.05-2.07-1.29-4.26-2.3-6.62-2.7,2.34-.14,4.92,1.11,6.62,2.7ZM16.27,59.05c-.24.61-.95-.37-1.21.24-.09.15-.18.08-.21-.05-.15-.53-1.05-1.41-.12-1.72.11-.03.17-.27.25-.41.27.04.49.96.76.02.51.12.38,1.4.53,1.92ZM14.08,52c.36-.29.75-.47,1.16-.5l-3.04,2.06c.62-.52,1.25-1.04,1.89-1.55ZM12.51,58.6c.38.41.62.75,1.09.48.3,0,.36.73.66.81-.25.72-1.02.3-1.4.75-.75-.32-.21-1.31-.36-2.04ZM10.73,49.24c.48-.56,1.06-.55,1.69-.32-.56.11-1.13.21-1.69.32ZM14.61,65.58c.04-.38-.25-.54-.49-.77-.23.3-.39.61-.37.99,0,.11-.04.32.2.22.45-.18.34.11.24.31-.35.67.02,1.17.36,1.7-.74-.59-1.13-1.46-1.18-2.37-.07.05-.2.08-.42.06-.02,0-.07.07-.07.12-.11,1.02-.86,1.02-1.57,1.09-.07,0-.18.17-.17.19.43.63.31,1.18-.12,1.7.33.26.13.46.01.73-.09.21-.39.27-.34.56-.27-.13-.39-.38-.5-.64-.14-.34-.26-.69-.44-1.16-.19,1.03.51,2.04,1.29,2.07.38.01.6.3.84.56-.1.26-.78-.34-.6.47.06.27-.44.05-.62-.12-1.18-1.13-1.74-2.5-1.51-4.13.17-1.25.8-2.23,1.75-2.94.18-.14.42-.7.8,0,.12.22.56-.16.72-.39.12-.18-.19-.18-.38-.21.7-.31,1.37-.41,2.04-.21.87-1.1,2.48-1.61,3.79-1.07-.57.03-1.02.15-1.26.63.15.15.37.02.61.15-.6-.02-.77.31-.69.76.03.16-.02.15-.11.17-.17.05-.45-.06-.46.21,0,.24.35.08.45.26.02.08-.05.08-.1.1-.19.06-.53-.12-.55.14-.03.29.3.09.46.13.22.05.1.27.24.35-.17.14-.41-.2-.5.06-.1.3.3.22.4.41-.27.12-.49-.11-.78-.07.21.34.2.59-.23.67-.05-.28.07-.88-.45-.23-.02.02-.11-.01-.16-.04-.01,0-.02-.08-.01-.09.39-.22.09-.5.11-.83-.21.13-.14.31-.22.43ZM12.85,83.26c.04.27-.48.24-.6.66-.42-.81-.11-1.76-1-2.16-.22.4-.09.92-.03,1.44-.55-1.46-.29-2.99.72-4.22.97-1.19,2.47-1.69,3.89-1.25-.88-.1-1.74-.05-2.52.44-.59.37-.57.5.01.94.19.14.6.26.24.71.29.05.67-.47.86.24.05.18.18.21,0,.39-.21.19-.5.34-.04.7.22.17-.06.53-.38.67-.58.26-1.29.41-1.13,1.43ZM14.75,89.38c-1.11-.33-2.26-4.73-.54-2.1-.65.87.42,1.33.54,2.1ZM9.44,92.08c1.01-1.11,2.38-1.55,3.87-1.43-1.13.07-2.15.37-2.95,1.28,1.29-.84,2.67-1.15,4.31-.67-.19.03-.24.05-.29.05-1.34-.11-1.35-.1-1.43,1.29-.04.79-.47,1.2-1.29,1.26-.37.02-.72.41-1.12.06-.02-.02-.23.1-.29.19-.1.18.06.26.19.34.17.1.42-.06.59.25-.56-.02-.93.7-1.57.26,0,0-.44,0-.42.34.02.35-.41.3-.55.35-.5-1.48.4-2.96.95-3.56ZM9.19,100.1c-.65.21-1.24.96-2.09.51-.03-.01-.85.3-.81.93.01.2.2.6-.22.6-.38,0-.72-.17-.6-.55-.28-2.42,1.45-4.96,3.68-5.54.33-.09.68-.26.9.24.17.38.44.69-.26.77-.19.02-.44.16-.4.41.04.27.28.13.44.11.54-.06.13.34.18.47.43,1.23.3,1.69-.82,2.05ZM12.45,105.41c-.2-.35-.34-.32-.6-.09-.34.3-.62.62-.64,1.12-.09-.49.32-.91.12-1.4-.05-.13,0-.34-.2-.37-.18-.02-.24.16-.33.28-.11.14-.14.31-.16.49-.02.27.04.56-.33.71-.16.07-.15.37-.12.59.06.39.11.79.17,1.25-.57-1.04-.32-3.15.97-4.2.65-.53,1.4-.77,2.22-.86.86-.09,1.55.24,2.12.9-.4,0-.77-.4-1.22-.06.22.06.41.11.59.18.11.04.22.05.18.27-.05.27-.18.15-.28.12-.23-.07-.46-.08-.68-.06-.12.01-.32-.04-.33.14-.02.2.18.21.33.24.18.04.37.07.6.12-.08.04-.12.07-.15.06-.4-.11-.65.21-.93.37-.17.09-.46.26-.24.61.08.12,0,.36-.18.44-.14.06-.31.05-.43-.07-.21-.2.14-.27.1-.44-.46.36-.5-.2-.58-.35ZM14.31,113.59c-.01-.53-.22-.53-.49-.38.01.03.02.05.03.08l-.04.02c-.07,0-.15,0-.22.01,0,.09,0,.19,0,.28.04.03.08.06.12.09l.04.03s-.02.02-.03.03c.08.07.22.13.22.2,0,.44-.02.88-.04,1.31,0,.13-.11.22-.23.25-.1.03-.14-.06-.19-.13-.69-.92-.79-2.36-.29-3.44-.04.02-.07.04-.09.04-1.39.34-1.4.35-1.01,1.79.22.81-.07,1.38-.88,1.7-.37.15-.59.66-1.11.43-.03-.01-.2.18-.22.29-.04.22.15.24.31.28.2.04.41-.2.68.06-.57.17-.7,1.02-1.5.8-.01,0-.44.15-.31.49.13.34.22.71.27,1.07-1-1.33-1.31-2.81-.76-4.39.53-1.53,1.68-2.43,3.23-2.81-1.12.45-2.05,1.11-2.54,2.29,1-1.25,2.24-2.02,3.99-2.12.04-.08.08-.17.13-.24.68-1.07,2.04-1.55,3.23-1.16.05.02.11.06.14.05.7-.32.98.09,1.19.69-.39-.07-.89,0-1.07.22-.45.58-1.22.42-1.69.89-.34.35-.64.71-.87,1.28ZM18.46,118.54c-.19.35-.24.67-.12,1.1.17.59-.1,1.24.07,1.86-.36,0-.55.41-.93.4-.39-.01-.7.11-.62.64.05-.36-.48-.7,0-1.03.04-.03.02-.11-.03-.18-.09,0-.17,0-.25-.03-.02.02-.04.04-.05.06-.06.12-.1.25-.16.42-.08-.13-.12-.21-.17-.3-.17.15,0,.36-.13.51-.12-.19.03-.45-.2-.65-.28.36.04.73-.03,1.12-.64-1.63.09-3.8,1.97-4.64.32-.14.49.09.71.23.29.2.03.35-.05.51ZM24.56,115.22c-.09.3-.05.62.11.55.65-.29.24.46.52.49-.65.59-1.77-.51-.63-1.04ZM24.25,112.16c-.44-.43-.85-.86-1.56-1.04.16.32.52.34.62.68-.75-.21-1.44-.55-2.23-.42.01.22.18.14.27.18-.12.03-.25.06-.46.11.27.2.59.05.77.28-.23.08-.48-.17-.71,0-.12.11.61.27-.04.42-.24.06-.34.79-.3.87.25.45-.23.42-.33.49-.18.13-.49.08-.62-.17-.12-.25-.4-.23-.41-.1-.06.68-.67.48-1,.58-.31.1-.26.21-.25.4.02.32.21.19.4.18.59-.01.99-.49,1.56-.59.06.33-.15.37-.37.45-.39.15-.81.28-1.15.52-.36.26-.44.31-.76.03-.39.71.02,1.24.38,1.79-1.26-1.2-1.54-2.92-.75-4.37.87-1.6,2.66-2.4,4.55-2.02,1.75.35,3.17,1.78,3.32,3.5-.22-.75-.48-1.29-.94-1.75ZM24.94,96.21c-.17-.24.03-.52-.25-.76-.12.42-.13.87-.67,1.19.27-.62-.09-1.21.54-1.72.26-.19.54-.79.69-1.22-.59-.68.41-.65.5-1.04-.06.51.17.86.64.79.67-.12-1.22,2.38-1.45,2.76ZM28.41,91.5c-.29-.73-.4-.75-1.13-.28-.04-1.01.61-2.18,1.46-.92.38.45-.17.72-.33,1.2ZM28.67,72.37c-.65-.64-1.31-.54-2,.34.61-.33.51.18.59.38.12.29-.02.62-.3.77-.46.24-.86.63-1.39.74-.16.03-.14.19-.14.31,0,.2.16.16.28.17.32.04.61-.22,1.02-.07-.9.42-1.93.65-2.06,1.87-1.09-1.22-.99-3.31.21-4.66,1.5-1.7,4.37-1.91,5.96-.49-.36-.06-.76-.51-.88.16-.02.11-.31,0-.47-.04-.28-.07-.54-.27-.86-.1.04.51.55.37.92.67-.38-.07-.58.26-.89-.05ZM29.79,104.05c.23-1.21,1.12-2.44,2.03-2.79-1.15,1.18-1.92,2.53-1.77,4.07l.19.94c-.11-.32-.16-.63-.19-.94l-.26-1.28ZM31.85,105.38c-.18.21-.3-.03-.43-.13-.26-.18-.33.23-.54.18-.03-.72-.42-2.19.95-1.49-.98.38.2,1.03.01,1.43ZM30.99,100.88c.47-.48.68-1.31,1.78-1.17-.63.54-1.33.66-1.78,1.17ZM32.89,81.41c-.3-.02-.3,0-.45.35-.01.03-.05.06-.08.08-.53.24-.58.47.01.7.03.01.05.15.03.22-.11.37-.07.74-.07,1.11,0,.16-.03.31-.17.41-.12-.25-.4.14-.52-.14-.14-.3-.47-.35-.67-.22-.23.15-.15.44.03.67.35.44-.19.5-.36.79-.05-.63-.95-.73-.75-1.46-.41.43-.07,1.02-.33,1.5-.34-.88.06-2.31.95-3.08,1-.85,2.56-1.5,3.93-.75-.55-.06-1.04-.13-1.54-.17ZM34.71,62.86c.04.13.27.03.29.21-.01,0-.04.05-.07.05-.54-.03-1.01.25-1.52.35-.21.04-.45.14-.35.46.01.04.01.12,0,.13-.75.41-.56,1.22-.78,1.86-.14.39-.31.35-.5.06-.07-.11-.13-.24-.16-.37-.13-.52-.51-.71-.97-.6-.45.1-.8.34-.76.94.06.97.48,1.77,1.07,2.61-1.5-.96-1.87-3.46-.83-5.05,1-1.53,2.66-2.2,4.44-1.8.09.02.17.05.26.08.04.01.06.03.09.05-.03-.08-.04-.17,0-.3.76.62,2.55-.38,3.16-1.03.06-.09.2-.11.3-.03.3.26-.22,1.04-.79.85-.54-.12-1.31.29-1.96.67.48.39,1.21.36,1.53,1.04-.61-.36-1.26-.42-1.9-.44-.03.33-.4.02-.54.27ZM35.49,63.8c.38-.51.69-.07,1.01.06-.3-.02-.58.18-.87.15-.14-.02-.09.29-.24.14-.09-.09.01-.23.1-.35ZM39.99,88.15c.21.23.18.73-.13.79-.68.14-1.16.86-1.91.66-.33-.09-.53.39-.86.13-.15.22-.42.37-.31.72.08.28.13.57.23,1.07-.98-1.64-.54-3.87.85-4.79.42-.28.91-.55,1.47-.2.33.21.7-.16,1.12-.03-.27.38-.22.86-.55,1.2-.08.09-.08.27.09.45ZM38.12,73.23c.14.02.27.04.43.07-.17.13-.39-.01-.54.2.44.28.96,0,1.39.24-.44-.03-.88-.06-1.4.01.27.22.53.07.74.17-.18.18-.49-.06-.72.25.35.03.66.06.96.09,0,.02,0,.03,0,.04-.31.02-.63.04-.99.06.26.24.53.05.78.2-.62-.26-.66.53-1.15.58-.3.03-.53.09-.84-.07-.4-.2-.88-.25-1.35-.2.18-1.22.73-1.8,2.07-2.08,1.58-.34,2.94.08,4.03,1.3-1-.83-2.12-1.18-3.4-.87ZM41.59,59.15c-.57-.05-.28-.93-.53-1.19.23-1.69,1.55.89.53,1.19ZM43.35,81.12c-.55-.51.59-.82.6-1.4,0,.87.94,2.41-.6,1.4ZM41.69,49.41c.78-.78,1.72-1.31,2.76-1.63-.96.49-1.64,1.44-2.76,1.63ZM42.8,38.03c-.69.32-1.1.72-1.19,1.48-.03.3-.15.59-.27.87.2-1.66.74-3.26.78-4.94.04-1.68-.16-3.34-.29-5.01.49,2.51.66,5.03.1,7.63.86-.24,1.56-.59,2.12-1.19.53-.57,1.08-1.12,1.7-1.61-.82,1.09-1.67,2.18-2.94,2.76ZM57.66,66.55c-.02.75.54.87,1.03.35.19.38-.02,1.68-.62,1.18-.49-.44-.6-.03-.86.2.04-.33.09-.66-.44-.58-.65-.24.53-1.02.9-1.15ZM56.27,84.99c-.49-.3-.57.79-1.11.2-.44-.58.91-1.04,1.11-.2ZM54.93,83.12c.32,0,.33.39.69.25-.55.61-.92.65-1.36.01.68.42.84.25.67-.27ZM74.76,29.97c-.42-2.51.37-5.33-.06-7.96.23-4.61-.71-9.84-.08-14.13,7.2-1.26,12.27,3.19,12.32,10.46.6,7.18-7.3,8.95-12.17,11.63Z"/>
        <path class="cls-1" d="M35.19,62.09c.04.1.06.21.06.32.14.01.29.03.43.04-.05-.22-.29-.27-.5-.36Z"/>
        <path class="cls-1" d="M17.54,121.28c-.09.26-.41.17-.57.4.33.18.58-.05.83-.14.33-.12-.1-.7-.26-.26Z"/>
        <path class="cls-1" d="M13.5,64.71s-.03,0-.05.01c-.07.31-.1.63-.08.94.24-.18-.1-.68.13-.95Z"/>
        <path class="cls-1" d="M13.77,63.87c.32-.16.65-.33,1.03-.13-.24-.16-.49-.27-.73-.34-.08.11-.17.21-.24.33-.03.04-.04.09-.07.14Z"/>
        <path class="cls-1" d="M35.25,62.41c-.62-.06-1.24-.12-1.87-.18,0,.06-.01.11-.02.17.6.2,1.24.17,1.89.19,0-.01,0-.02,0-.04,0-.05,0-.1,0-.15Z"/>
        <path class="cls-1" d="M35.19,62.09c-.05-.11-.14-.2-.27-.26.04.13.14.2.27.26Z"/>
        <path class="cls-1" d="M13.24,111.86s-.03.06-.05.09c.04-.02.09-.05.18-.1-.05,0-.09,0-.14.01Z"/>
        <path class="cls-1" d="M26.21,40.97s0,0-.01.01c.05.04.1.07.15.11,0,0,.01,0,.02,0-.04-.06-.08-.1-.12-.15-.01.01-.02.03-.04.04Z"/>
        <path class="cls-1" d="M28.36,43.97c-.18-.26-.34-.52-.48-.79-.06-.04-.12-.09-.2-.12.21.32.36.68.69.9Z"/>
      </g>
    </g>
  </g>
</svg>